<?xml version="1.0"?>
<svg xmlns="http://www.w3.org/2000/svg" height="512px" viewBox="0 0 512 512" width="512px" class=""><g><g id="Solid"><path d="m152 96h-8a8.009 8.009 0 0 0 -8 8v64a8.009 8.009 0 0 0 8 8h8z" data-original="#000000" class="active-path" data-old_color="#000000" fill="#FFFFFF"/><circle cx="216" cy="128" r="16" data-original="#000000" class="active-path" data-old_color="#000000" fill="#FFFFFF"/><path d="m376 168v-64a8.009 8.009 0 0 0 -8-8h-8v80h8a8.009 8.009 0 0 0 8-8z" data-original="#000000" class="active-path" data-old_color="#000000" fill="#FFFFFF"/><path d="m168 245.246 67.309 20.191a40.2 40.2 0 0 1 20.691 14.382 40.2 40.2 0 0 1 20.688-14.381l67.312-20.192v-21.246h-176zm112-5.246h16v16h-16zm-32 0h16v16h-16zm-32 0h16v16h-16z" data-original="#000000" class="active-path" data-old_color="#000000" fill="#FFFFFF"/><path d="m232 192h48v16h-48z" data-original="#000000" class="active-path" data-old_color="#000000" fill="#FFFFFF"/><path d="m138.939 236.528 13.061 3.918v-15.062a24.088 24.088 0 0 0 -13.061 11.144z" data-original="#000000" class="active-path" data-old_color="#000000" fill="#FFFFFF"/><path d="m344 80a48.055 48.055 0 0 0 -48-48h-80a48.055 48.055 0 0 0 -48 48v96h16v-88a24.028 24.028 0 0 1 24-24h96a24.028 24.028 0 0 1 24 24v88h16z" data-original="#000000" class="active-path" data-old_color="#000000" fill="#FFFFFF"/><path d="m200 176h112v-20.3a32 32 0 1 1 0-55.39v-12.31a8.009 8.009 0 0 0 -8-8h-96a8.009 8.009 0 0 0 -8 8v12.305a32 32 0 1 1 0 55.39z" data-original="#000000" class="active-path" data-old_color="#000000" fill="#FFFFFF"/><circle cx="296" cy="128" r="16" data-original="#000000" class="active-path" data-old_color="#000000" fill="#FFFFFF"/><path d="m88 416h-8v18.048l144 43.2v-167.295l-144-43.2v69.247h8a24.028 24.028 0 0 1 24 24v32a24.028 24.028 0 0 1 -24 24z" data-original="#000000" class="active-path" data-old_color="#000000" fill="#FFFFFF"/><path d="m432 416h-8a24.028 24.028 0 0 1 -24-24v-32a24.028 24.028 0 0 1 24-24h8v-69.248l-144 43.2v167.295l144-43.2z" data-original="#000000" class="active-path" data-old_color="#000000" fill="#FFFFFF"/><path d="m64 320h-24a8.009 8.009 0 0 0 -8 8v8h32z" data-original="#000000" class="active-path" data-old_color="#000000" fill="#FFFFFF"/><path d="m480 328a8.009 8.009 0 0 0 -8-8h-24v16h32z" data-original="#000000" class="active-path" data-old_color="#000000" fill="#FFFFFF"/><path d="m480 392v-40h-56a8.009 8.009 0 0 0 -8 8v32a8.009 8.009 0 0 0 8 8h48a8.009 8.009 0 0 0 8-8z" data-original="#000000" class="active-path" data-old_color="#000000" fill="#FFFFFF"/><path d="m240 312h32v168h-32z" data-original="#000000" class="active-path" data-old_color="#000000" fill="#FFFFFF"/><path d="m408 257.247v-14.5l-126.711 38.016a24.1 24.1 0 0 0 -15.946 15.237h13.481z" data-original="#000000" class="active-path" data-old_color="#000000" fill="#FFFFFF"/><path d="m246.657 296a24.107 24.107 0 0 0 -15.949-15.238l-126.708-38.01v14.5l129.176 38.748z" data-original="#000000" class="active-path" data-old_color="#000000" fill="#FFFFFF"/><path d="m360 240.446 13.061-3.918a24.088 24.088 0 0 0 -13.061-11.144z" data-original="#000000" class="active-path" data-old_color="#000000" fill="#FFFFFF"/><path d="m40 400h48a8.009 8.009 0 0 0 8-8v-32a8.009 8.009 0 0 0 -8-8h-56v40a8.009 8.009 0 0 0 8 8z" data-original="#000000" class="active-path" data-old_color="#000000" fill="#FFFFFF"/></g></g> </svg>
