<svg xmlns="http://www.w3.org/2000/svg" viewBox="0 0 94.57 95.75"><defs><style>.cls-1{fill:#fff;}</style></defs><g id="Capa_2" data-name="Capa 2"><g id="Capa_1-2" data-name="Capa 1"><path class="cls-1" d="M3.64,94.1a3.6,3.6,0,0,1-2-3.66q0-42.7,0-85.41c0-1.87.64-2.87,2.06-3.27a2.93,2.93,0,0,1,2.8.83l17,14.16L57.83,45.34a3.23,3.23,0,0,1,1.47,2.55A3,3,0,0,1,58,50.3L36.52,68.15,7,92.77A7.75,7.75,0,0,1,4.91,94.1Zm3.5-8.61.34-.22q22.16-18.45,44.31-36.9c.55-.46.41-.65,0-1q-22-18.28-44-36.6c-.18-.15-.32-.48-.64-.35Z"/><path class="cls-1" d="M5.22,95.75h-2l-.34-.17C1,94.61,0,92.93,0,90.44q0-32,0-64.06V5C0,2.42,1.12.78,3.28.17a4.53,4.53,0,0,1,4.3,1.16l51.3,42.75A4.78,4.78,0,0,1,61,47.9a4.72,4.72,0,0,1-2,3.67L37.57,69.42,8,94a9.57,9.57,0,0,1-2.52,1.6ZM4.07,92.46h.49a7.35,7.35,0,0,0,1.38-.95Q20.69,79.19,35.47,66.89L56.9,49c.7-.58.76-.88.76-1.16s-.13-.65-.88-1.27L5.47,3.85c-.72-.6-1-.59-1.29-.51-.45.13-.87.24-.87,1.69V26.38q0,32,0,64.06C3.28,91.62,3.56,92.12,4.07,92.46Zm1.57-4.09-.15-2.88V9.24l1.06-.4a2,2,0,0,1,2.34.67l43.9,36.56a2.34,2.34,0,0,1,1,1.8,2.31,2.31,0,0,1-.95,1.76L19.48,77.41,8.16,86.79ZM8.78,13.7V82l8.6-7.16q16.22-13.5,32.44-27Z"/><path class="cls-1" d="M37.41,94.1a3.27,3.27,0,0,1-2-3.5c.06-4.19,0-8.37,0-12.55a2.69,2.69,0,0,1,3.6-2.7,2.8,2.8,0,0,1,1.82,2.83c0,2.11,0,4.22,0,6.32v1l4.82-4Q65.52,65,85.43,48.39c.47-.39.58-.57,0-1q-22-18.32-44-36.68l-.63-.49v4.15c0,1.12,0,2.23,0,3.34a2.78,2.78,0,0,1-2.75,2.87,2.72,2.72,0,0,1-2.68-2.91c0-4.27,0-8.55,0-12.82a2.86,2.86,0,0,1,1.55-2.91,2.89,2.89,0,0,1,3.31.68q10.94,9.14,21.9,18.26c9.62,8,19.19,16.07,28.87,24,2.6,2.13,2.53,3.9,0,6Q65.68,71.83,40.45,93a6.17,6.17,0,0,1-2,1.14Z"/><path class="cls-1" d="M38.77,95.75l-2-.13a4.89,4.89,0,0,1-3.07-5.05c0-2.44,0-4.88,0-7.32,0-1.74,0-3.48,0-5.22a4.51,4.51,0,0,1,1.88-3.72,4.29,4.29,0,0,1,3.92-.51,4.41,4.41,0,0,1,2.91,4.37c0,1.29,0,2.59,0,3.88l9.3-7.75L83.5,47.87Q67,34.18,50.69,20.54l-8.23-6.85v1.67c0,.79,0,1.58,0,2.37a4.39,4.39,0,0,1-4.36,4.47h0a4.37,4.37,0,0,1-4.31-4.54v-6c0-2.27,0-4.53,0-6.8a4.42,4.42,0,0,1,7.56-3.5L71.1,26.21C78.06,32,85,37.85,92,43.6c1.7,1.39,2.53,2.79,2.53,4.26s-.82,2.87-2.51,4.26q-20.44,16.93-40.8,34L41.5,94.22A7.8,7.8,0,0,1,39,95.66Zm-1-3.29h.42a4.72,4.72,0,0,0,1.19-.76l9.76-8.14q20.38-17,40.82-34c.83-.69,1.31-1.32,1.31-1.72s-.48-1-1.32-1.73Q79.42,37.5,69,28.73L39.17,3.86c-.91-.76-1.25-.59-1.53-.46S37,3.7,37,4.82c0,2.27,0,4.55,0,6.82v6c0,.3.08,1.27,1,1.28h0c.63,0,1.06-.51,1.08-1.27s0-1.52,0-2.27V6.82l3.31,2.6L52.79,18,86.52,46.11a2.1,2.1,0,0,1,0,3.55Q70.16,63.24,53.86,76.83L39.17,89.06V82.6c0-1.47,0-2.94,0-4.41,0-1-.55-1.23-.73-1.29a1,1,0,0,0-.93.1A1.26,1.26,0,0,0,37,78.06c0,1.73,0,3.45,0,5.18,0,2.46,0,4.93,0,7.38C37,91.73,37.25,92.17,37.78,92.46Z"/></g></g></svg>