<svg xmlns="http://www.w3.org/2000/svg" viewBox="0 0 106.02 120.01"><defs><style>.cls-1{fill:#fff;}</style></defs><g id="Capa_2" data-name="Capa 2"><g id="Capa_1-2" data-name="Capa 1"><path class="cls-1" d="M37.32,120c-5.15.09-9.67-1.7-14.07-4A56.25,56.25,0,0,1,10,106.13c-2.84-2.72-5.61-5.52-8.4-8.3-2.16-2.15-2.16-4,0-6.13l26.28-26c1.64-1.61,3.26-3.25,4.95-4.81.73-.66.73-1,0-1.74q-11.21-11-22.34-22.07c-2.9-2.87-5.82-5.73-8.73-8.6A8.77,8.77,0,0,1,1,27.55c-1.32-1.63-1.38-3.33.1-4.81C6.31,17.52,11.31,12,17.31,7.68c4.78-3.47,9.92-6.36,15.83-7.3C40.73-.83,47.64.8,53.3,6.25c17.36,16.66,34.23,33.81,51.27,50.8,1.93,1.92,1.92,3.79,0,5.72-1.22,1.25-2.41,2.52-3.65,3.75-2.18,2.15-4,2.17-6.16,0Q78.41,50.1,62,33.62c-5-5-10-10.08-15-15.08a17.21,17.21,0,0,0-7.1-4.47,12.89,12.89,0,0,0-10.48,1.48,44.73,44.73,0,0,0-11.2,9.59c-.58.66-.05.9.29,1.24L31.28,38.85,48.85,56.09c1.06,1,2.11,2.1,3.22,3.07.69.61.71,1,0,1.66Q44,68.68,35.9,76.6c-5.76,5.63-11.49,11.3-17.27,16.91-.72.7-.65,1,0,1.75A43.56,43.56,0,0,0,29,104.21c6,3.48,11.62,2.94,16.79-1.7,4.89-4.4,9.34-9.25,14-13.91q8-8.07,16-16.16C78.19,70,79.9,70,82.3,72.4c1.16,1.16,2.31,2.31,3.46,3.48,2,2,2,3.86,0,5.89C81.84,85.66,78,89.56,74.06,93.43c-6.49,6.42-13,12.79-19.5,19.24a23.6,23.6,0,0,1-12,6.76A21.2,21.2,0,0,1,37.32,120Z"/></g></g></svg>