<svg xmlns="http://www.w3.org/2000/svg" viewBox="0 0 137.56 131.98"><defs><style>.cls-1{fill:#fff;}</style></defs><g id="Capa_2" data-name="Capa 2"><g id="Capa_1-2" data-name="Capa 1"><path class="cls-1" d="M109.69,130.34c-.06-.31-.35-.36-.55-.52a2.64,2.64,0,0,1-1-3.11,2.58,2.58,0,0,1,2.65-1.93c4,0,8,0,11.93,0h3.25L88.12,87l-19.48,19.5c-1.84,1.84-2.76,1.94-4.92.56L3.88,69c-.37-.24-.75-.46-1.09-.73a2.77,2.77,0,0,1,3-4.66c1.33.74,2.59,1.61,3.88,2.43q27.49,17.49,55,35c.81.52,1.2.4,1.83-.23Q76,91.1,85.72,81.48c2-2,3.27-2,5.3,0l38.11,38.1a2.78,2.78,0,0,0,1.21,1V106c0-2.07.6-3.09,2-3.49s2.45.14,3.52,1.89V128.5a6.54,6.54,0,0,1-1.83,1.84Z"/><path class="cls-1" d="M134.57,132H108.33l-.2-.87a4.28,4.28,0,0,1-1.59-4.91,4.21,4.21,0,0,1,4.2-3.07H122L88.12,89.29,69.8,107.63c-2.38,2.39-4.15,2.59-7,.79L3,70.34a12.63,12.63,0,0,1-1.22-.82,4.42,4.42,0,0,1,4.8-7.39c1,.55,1.91,1.16,2.85,1.77L19,70q23.21,14.76,46.4,29.55c5.07-5.1,10-10,14.91-14.93l4.28-4.28c2.68-2.68,5-2.68,7.63,0l36.52,36.51V106c0-1,0-4.18,3.25-5.08,2.88-.77,4.44,1.12,5.36,2.62l.25.39V129l-.28.41a8.09,8.09,0,0,1-2.29,2.3Zm-24.14-3.29h23.11a4.52,4.52,0,0,0,.73-.72V104.86c-.69-1-1-.9-1.45-.78s-.83.23-.84,1.9v16.76l-2.11-.64a3.55,3.55,0,0,1-1.75-1.2L89.86,82.64c-1.39-1.39-1.59-1.39-3,0l-4.29,4.29q-7.5,7.48-15,15a2.78,2.78,0,0,1-3.88.45Q40.48,87.54,17.19,72.75L7.63,66.66C6.75,66.08,5.88,65.51,5,65a1.08,1.08,0,0,0-1.5.4,1.1,1.1,0,0,0,.34,1.54,8.14,8.14,0,0,0,.75.5l60,38.21c1.52,1,1.59.94,2.88-.35L88.12,84.64l41.78,41.77H110.76a1,1,0,0,0-1.09.79c-.16.49-.13.84.48,1.31Z"/><path class="cls-1" d="M56,1.64C77.6,1.76,97,17.7,101.44,40.07a46.57,46.57,0,0,1-6.37,34.42c-1,1.7-2.65,2.2-4.08,1.32s-1.74-2.55-.69-4.24A42,42,0,1,0,13.24,43.3,41,41,0,0,0,13.4,56c0,.3.07.61.1.91a2.81,2.81,0,0,1-2.32,3.37A2.86,2.86,0,0,1,8,57.66a44.72,44.72,0,0,1-.67-10.83C8.85,27.61,18.4,13.88,35.79,5.67,41.79,2.83,48.23,1.7,56,1.64Z"/><path class="cls-1" d="M92.42,77.88a4.4,4.4,0,0,1-2.29-.67,4.3,4.3,0,0,1-2-2.68,5.06,5.06,0,0,1,.76-3.83,40.31,40.31,0,1,0-74-27.17A39.19,39.19,0,0,0,15,55.68c0,.26.07.53.09.8.32,2.85-1.2,5-3.66,5.38a4.23,4.23,0,0,1-3.18-.74,4.88,4.88,0,0,1-1.91-3.2A44.88,44.88,0,0,1,5.68,46.7C7.26,27,17.15,12.65,35.09,4.18,41,1.38,47.64.05,55.94,0h0c22.78.12,42.58,16.84,47.09,39.76a48.26,48.26,0,0,1-6.58,35.59,5.18,5.18,0,0,1-2.8,2.33A4.13,4.13,0,0,1,92.42,77.88ZM54.84,5.62A43.6,43.6,0,0,1,91.7,72.44a1.85,1.85,0,0,0-.36,1.33,1.07,1.07,0,0,0,.51.64.94.94,0,0,0,.82.14,2,2,0,0,0,1-.92,45.12,45.12,0,0,0,6.16-33.24C95.62,19,77.17,3.4,56,3.29,48,3.34,42,4.53,36.5,7.15,19.7,15.09,10.43,28.48,9,47A42.46,42.46,0,0,0,9.6,57.39a1.64,1.64,0,0,0,.59,1.06,1,1,0,0,0,.72.17q1.11-.19,1-1.56c0-.45-.06-.63-.09-.81a42.42,42.42,0,0,1-.16-13.18A43.72,43.72,0,0,1,54.84,5.62Z"/><path class="cls-1" d="M50.73,63.2c2.23,0,4.46,0,6.69,0A5.6,5.6,0,1,0,57.64,52c-2-.08-3.94,0-5.9,0a11.15,11.15,0,0,1-.85-22.25C52,29.61,52,29.23,52,28.39c0-2.27,0-4.54,0-6.82a2.84,2.84,0,0,1,2.79-3.13c1.62,0,2.75,1.26,2.77,3.14,0,2.23.09,4.47,0,6.69-.07,1.23.37,1.43,1.46,1.39,2.22-.08,4.46,0,6.68,0a2.83,2.83,0,0,1,3.1,2.82,2.78,2.78,0,0,1-3,2.74c-4.5,0-9,0-13.49,0a5.61,5.61,0,0,0-5.49,7.54A5.67,5.67,0,0,0,52,46.42c2.62.08,5.25-.25,7.85.25a11.15,11.15,0,0,1-1.2,22c-.86.07-1.11.3-1.09,1.15.05,2.31,0,4.63,0,6.94,0,1.94-1.08,3.16-2.72,3.19S52,78.73,52,76.77c0-2.31,0-4.63,0-6.94,0-.9-.27-1.09-1.1-1.07-2.32,0-4.63,0-6.95,0-1.89,0-3.15-1.13-3.16-2.75S42.07,63.21,44,63.2C46.27,63.19,48.5,63.2,50.73,63.2Z"/><path class="cls-1" d="M54.77,81.62a4.25,4.25,0,0,1-3-1.19,5,5,0,0,1-1.42-3.65V75.54c0-1.71,0-3.42,0-5.12-2.22,0-4.31,0-6.4,0-2.76,0-4.77-1.87-4.8-4.38A4.26,4.26,0,0,1,40.36,63,5.13,5.13,0,0,1,44,61.56h8.82c1.51,0,3,0,4.55,0a4,4,0,0,0,4.15-3.92,4,4,0,0,0-4-4c-1,0-2,0-3,0s-1.89,0-2.84,0A12.72,12.72,0,0,1,39.15,41.19a12.88,12.88,0,0,1,11.2-13.06c0-2.35,0-4.46,0-6.57a4.44,4.44,0,1,1,8.85,0l0,1.29c0,1.72.05,3.44,0,5.15C61,28,62.7,28,64.46,28h1.23a4.94,4.94,0,0,1,3.51,1.4,4.28,4.28,0,0,1,1.21,3.1,4.42,4.42,0,0,1-4.67,4.35h-5.9c-2.53,0-5.05,0-7.59,0a4.29,4.29,0,0,0-3.56,1.79,3.8,3.8,0,0,0-.4,3.53,4,4,0,0,0,3.76,2.6c.84,0,1.7,0,2.54,0a26.22,26.22,0,0,1,5.56.28A12.8,12.8,0,0,1,59.2,70.3c0,2.24,0,4.38,0,6.51,0,2.83-1.76,4.76-4.33,4.81ZM51,67.11a2.68,2.68,0,0,1,1.93.7,2.73,2.73,0,0,1,.69,2.06c-.06,1.88,0,3.77,0,5.64v1.25a1.83,1.83,0,0,0,.42,1.32,1.13,1.13,0,0,0,.75.26c.72,0,1.1-.54,1.11-1.56,0-2.3,0-4.6,0-6.9a2.52,2.52,0,0,1,2.62-2.82,9.51,9.51,0,0,0,1-18.78,22.89,22.89,0,0,0-4.87-.22c-.91,0-1.82,0-2.72,0a7.25,7.25,0,0,1-6.73-4.75A7.06,7.06,0,0,1,46,36.78a7.52,7.52,0,0,1,6.24-3.2c2.54,0,5.09,0,7.63,0,2,0,3.92,0,5.88,0,.51,0,1.38-.15,1.4-1.11a1,1,0,0,0-.28-.75,1.63,1.63,0,0,0-1.19-.41H64.43c-1.79,0-3.58,0-5.38,0a3.11,3.11,0,0,1-2.44-.75,3,3,0,0,1-.72-2.37c.09-1.75.07-3.51,0-5.27V21.6c0-.45-.13-1.52-1.13-1.52s-1.15,1.15-1.15,1.51c0,2.25,0,4.51,0,6.77a2.6,2.6,0,0,1-2.6,3,9.51,9.51,0,0,0,.74,19c.91,0,1.81,0,2.72,0,1.07,0,2.13,0,3.2,0a7.24,7.24,0,1,1-.28,14.47c-1.53,0-3.06,0-4.59,0H44.05a1.87,1.87,0,0,0-1.35.43,1,1,0,0,0-.26.73c0,1,1.08,1.11,1.53,1.12,2.3,0,4.6,0,6.9,0Z"/></g></g></svg>