<svg xmlns="http://www.w3.org/2000/svg" viewBox="0 0 127.79 129.03"><defs><style>.cls-1{fill:#fff;}</style></defs><g id="Capa_2" data-name="Capa 2"><g id="Capa_1-2" data-name="Capa 1"><path class="cls-1" d="M44.31,0h8.9a6.54,6.54,0,0,1,6.54,6.54v5.68a0,0,0,0,1,0,0h-22a0,0,0,0,1,0,0V6.54A6.54,6.54,0,0,1,44.31,0Z"/><path class="cls-1" d="M44.31,85.3h8.9a6.54,6.54,0,0,1,6.54,6.54v5.68a0,0,0,0,1,0,0h-22a0,0,0,0,1,0,0V91.83A6.54,6.54,0,0,1,44.31,85.3Z" transform="translate(97.51 182.81) rotate(180)"/><path class="cls-1" d="M1.66,42.65h8.9a6.54,6.54,0,0,1,6.54,6.54v5.68a0,0,0,0,1,0,0h-22a0,0,0,0,1,0,0V49.19A6.54,6.54,0,0,1,1.66,42.65Z" transform="translate(-42.65 54.86) rotate(-90)"/><path class="cls-1" d="M87,42.65h8.9a6.54,6.54,0,0,1,6.54,6.54v5.68a0,0,0,0,1,0,0h-22a0,0,0,0,1,0,0V49.19A6.54,6.54,0,0,1,87,42.65Z" transform="translate(140.16 -42.65) rotate(90)"/><path class="cls-1" d="M14.15,12.49H23A6.54,6.54,0,0,1,29.59,19v5.68a0,0,0,0,1,0,0h-22a0,0,0,0,1,0,0V19a6.54,6.54,0,0,1,6.54-6.54Z" transform="translate(-7.7 18.6) rotate(-45)"/><path class="cls-1" d="M74.46,72.81h8.9a6.54,6.54,0,0,1,6.54,6.54V85a0,0,0,0,1,0,0h-22a0,0,0,0,1,0,0V79.34a6.54,6.54,0,0,1,6.54-6.54Z" transform="translate(190.51 78.91) rotate(135)"/><path class="cls-1" d="M13.15,72.4H22a6.54,6.54,0,0,1,6.54,6.54v5.68a0,0,0,0,1,0,0h-22a0,0,0,0,1,0,0V78.94A6.54,6.54,0,0,1,13.15,72.4Z" transform="translate(-25.47 146.47) rotate(-135)"/><path class="cls-1" d="M73.46,12.09h8.9a6.54,6.54,0,0,1,6.54,6.54V24.3a0,0,0,0,1,0,0h-22a0,0,0,0,1,0,0V18.63A6.54,6.54,0,0,1,73.46,12.09Z" transform="translate(35.69 -49.76) rotate(45)"/><path class="cls-1" d="M84.81,48.77a36.05,36.05,0,0,1-64,22.83,36.07,36.07,0,0,1,35-58.2A36.49,36.49,0,0,1,84.4,43.21a35.7,35.7,0,0,1,.41,5.56c0,3.21,5,3.22,5,0a41.52,41.52,0,0,0-27-38.58A41.06,41.06,0,0,0,13.59,70,41,41,0,0,0,89.27,55.31a43.49,43.49,0,0,0,.54-6.54C89.82,45.55,84.82,45.54,84.81,48.77Z"/><path class="cls-1" d="M92.86,82.43h0a5.64,5.64,0,0,1,5.64,5.64v.63a0,0,0,0,1,0,0H87.22a0,0,0,0,1,0,0v-.63A5.64,5.64,0,0,1,92.86,82.43Z" transform="matrix(0.87, -0.49, 0.49, 0.87, -29.9, 56.01)"/><path class="cls-1" d="M114.16,120.66h0a5.64,5.64,0,0,1,5.64,5.64v.63a0,0,0,0,1,0,0H108.52a0,0,0,0,1,0,0v-.63A5.64,5.64,0,0,1,114.16,120.66Z" transform="translate(274.14 176.38) rotate(150.88)"/><path class="cls-1" d="M84.39,112.2h0A5.64,5.64,0,0,1,90,117.83v.63a0,0,0,0,1,0,0H78.75a0,0,0,0,1,0,0v-.63A5.64,5.64,0,0,1,84.39,112.2Z" transform="translate(24.71 245.18) rotate(-119.12)"/><path class="cls-1" d="M122.63,90.89h0a5.64,5.64,0,0,1,5.64,5.64v.63a0,0,0,0,1,0,0H117a0,0,0,0,1,0,0v-.63A5.64,5.64,0,0,1,122.63,90.89Z" transform="translate(145.09 -58.86) rotate(60.88)"/><path class="cls-1" d="M82.46,95.56h0a5.64,5.64,0,0,1,5.64,5.64v.63a0,0,0,0,1,0,0H76.82a0,0,0,0,1,0,0v-.63A5.64,5.64,0,0,1,82.46,95.56Z" transform="translate(-35.03 151) rotate(-74.12)"/><path class="cls-1" d="M124.56,107.53h0a5.64,5.64,0,0,1,5.64,5.64v.63a0,0,0,0,1,0,0H118.92a0,0,0,0,1,0,0v-.63A5.64,5.64,0,0,1,124.56,107.53Z" transform="matrix(-0.27, 0.96, -0.96, -0.27, 265.08, 21.13)"/><path class="cls-1" d="M97,122.66h0a5.64,5.64,0,0,1,5.64,5.64v.63a0,0,0,0,1,0,0H91.33a0,0,0,0,1,0,0v-.63A5.64,5.64,0,0,1,97,122.66Z" transform="translate(155.83 273.32) rotate(-164.12)"/><path class="cls-1" d="M108.95,80.56h0a5.64,5.64,0,0,1,5.64,5.64v.63a0,0,0,0,1,0,0H103.31a0,0,0,0,1,0,0V86.2a5.64,5.64,0,0,1,5.64-5.64Z" transform="translate(27.05 -26.61) rotate(15.88)"/><path class="cls-1" d="M118.63,96.32a17.28,17.28,0,1,1-20.44-8.09,17.36,17.36,0,0,1,20.44,8.09c1.59,2.79,5.92.28,4.32-2.53A22.29,22.29,0,1,0,118,121.58c8.07-6.79,9.91-18.66,4.92-27.79C121.41,91,117.09,93.49,118.63,96.32Z"/></g></g></svg>