<svg xmlns="http://www.w3.org/2000/svg" viewBox="0 0 97.93 129.18"><defs><style>.cls-1{fill:#fff;}</style></defs><g id="Capa_2" data-name="Capa 2"><g id="Capa_1-2" data-name="Capa 1"><path class="cls-1" d="M33.31,129.18a20.79,20.79,0,0,0-4.33-.94A37.36,37.36,0,0,1,6.23,71.15C12.37,61.57,18.46,52,24.6,42.4c.48-.74.49-1-.31-1.6a8.5,8.5,0,0,1,.88-14.54c.73-.39.8-.7.59-1.42C23.92,18.56,22.16,12.27,20.32,6a3.09,3.09,0,0,1,1-3.58,10,10,0,0,1,13.06.08c2.93,2.59,5,2.59,8,0a9.94,9.94,0,0,1,13.23,0c2.86,2.52,5,2.51,7.87,0a10,10,0,0,1,13.05-.1A3.08,3.08,0,0,1,77.59,6C75.77,12.21,74,18.46,72.19,24.7c-.22.78-.22,1.16.64,1.63a8.49,8.49,0,0,1,.78,14.47c-.79.55-.79.85-.31,1.59C79.47,52,85.59,61.63,91.74,71.25a37.88,37.88,0,0,1,6.18,21.44c-.27,17.77-14,33.46-31.58,36-.75.11-1.58-.06-2.25.45ZM49,30.28H29.69c-2.45,0-4,1.4-4,3.54s1.59,3.51,4,3.52h7.19c2,0,3.21.93,3.19,2.55s-1.19,2.5-3.25,2.5c-1.77,0-3.53,0-5.3,0a1.53,1.53,0,0,0-1.51.8Q20.2,58.7,10.3,74.18a32.17,32.17,0,0,0-5,21.36c1.74,15.69,15.28,28.26,31,28.54,8.4.15,16.82.1,25.22,0a30.79,30.79,0,0,0,14-3.63c15.31-8,23.2-28.66,12.24-46C81.16,64,74.46,53.57,67.82,43.12a1.41,1.41,0,0,0-1.41-.75c-1.81.05-3.62,0-5.43,0-2,0-3.21-1-3.19-2.56s1.17-2.48,3.13-2.49h7.57a3.55,3.55,0,0,0,3-1.36,3.33,3.33,0,0,0,.42-3.68,3.44,3.44,0,0,0-3.35-2Zm-.11-5.05c5.67,0,11.34,0,17,0,.61,0,1-.06,1.18-.75,1.69-6,3.4-12.09,5.17-18.12.21-.74-.1-.89-.62-1a4.61,4.61,0,0,0-4.9,1.09,10.22,10.22,0,0,1-14.39,0c-2-2-4.66-1.82-6.81,0a15.35,15.35,0,0,1-2,1.54A9.9,9.9,0,0,1,31.63,6.76a5.21,5.21,0,0,0-4.92-1.55c-1,.22-1.24.57-.93,1.59q2.56,8.68,5,17.4c.24.85.61,1.06,1.46,1.05C37.77,25.21,43.32,25.23,48.87,25.23Z"/><path class="cls-1" d="M46.43,92.29c0-2.06,0-4.12,0-6.17a1.35,1.35,0,0,0-1-1.49,31.65,31.65,0,0,1-3-1.6c-3.63-2.12-5-5.4-4.33-9.41a9.6,9.6,0,0,1,7-8.22c1-.3,1.4-.65,1.24-1.66a5.39,5.39,0,0,1,0-1.39A2.51,2.51,0,0,1,49,60.05c1.26,0,2.58,1,2.41,2.25-.31,2.33.72,3.22,2.81,3.62a7.72,7.72,0,0,1,2.9,1.46A2.59,2.59,0,0,1,58,71a2.55,2.55,0,0,1-3.55.66c-.73-.4-1.48-.77-2.23-1.15-.52-.26-.74-.14-.73.49q0,5,0,10.08a.71.71,0,0,0,.55.82c.44.13.87.31,1.3.47,9.09,3.26,9.37,13.16,4.26,18.65a11.15,11.15,0,0,1-5.29,3.27c-.61.17-.9.41-.83,1.09a12.74,12.74,0,0,1,0,2.14,2.54,2.54,0,0,1-2.47,2.4,2.57,2.57,0,0,1-2.56-2.44c-.07-.87.38-2-.18-2.54s-1.66-.32-2.51-.49A15.52,15.52,0,0,1,38.27,102a2.51,2.51,0,1,1,2.65-4.26A13.76,13.76,0,0,0,45,99.58c.94.2,1.54.23,1.45-1.11C46.32,96.42,46.43,94.35,46.43,92.29Zm5,6.94a7,7,0,0,0,4.29-5.77,5.48,5.48,0,0,0-3.45-6.06c-.61-.25-.87-.24-.86.54C51.49,91.63,51.48,95.32,51.48,99.23ZM46.4,70.4a4.94,4.94,0,0,0-3.31,4.9c0,2,1,3.18,3.31,4Z"/><path class="cls-1" d="M49,37.35a2.52,2.52,0,1,1-2.56,2.4A2.53,2.53,0,0,1,49,37.35Z"/></g></g></svg>