<svg xmlns="http://www.w3.org/2000/svg" viewBox="0 0 157.24 138.78"><defs><style>.cls-1{fill:#fff;}</style></defs><g id="Capa_2" data-name="Capa 2"><g id="Capa_1-2" data-name="Capa 1"><path class="cls-1" d="M.73,41.39a3.25,3.25,0,0,1,3.19-1.54c1.76.09,3.53,0,5.3,0,1.61,0,2.63.95,2.62,2.31s-1,2.24-2.65,2.26c-1.82,0-3.64-.06-5.45,0a3.06,3.06,0,0,1-3-1.57Z"/><path class="cls-1" d="M3.5,45.22A3.7,3.7,0,0,1,.11,43.29L0,43.11V41.18L.11,41A4,4,0,0,1,4,39.12c1,.05,2.1.05,3.15,0H9.23c2,0,3.36,1.26,3.35,3s-1.34,3-3.38,3H7.1c-1.11,0-2.22,0-3.33,0Zm-2-2.52a2.28,2.28,0,0,0,2.23,1c1.14-.05,2.28,0,3.42,0H9.18c.72,0,1.92-.22,1.93-1.54,0-1-.71-1.54-1.91-1.56-.69,0-1.4,0-2.09,0-1.08,0-2.15,0-3.23,0a2.49,2.49,0,0,0-2.41,1Z"/><path class="cls-1" d="M125.62,70.21h26.15c3.44,0,4.74,1.34,4.73,4.81,0,10.17-7.31,17.5-17.51,17.56-3,0-6,0-9,0-1,0-1.29.18-1.3,1.24-.07,6.27-2.73,9.58-8.8,11.16-7,1.83-14,3.69-21,5.47-1.18.3-1.47.62-1,1.85a31,31,0,0,0,11.94,15.48c1.47,1,3,1.94,4.41,3a3.93,3.93,0,0,1,1.7,4.37,4.05,4.05,0,0,1-3.83,2.93c-.25,0-.51,0-.76,0H62.1a4.68,4.68,0,0,1-3.51-1.13,3.88,3.88,0,0,1,.46-6.07c1.21-.91,2.5-1.73,3.77-2.56a31,31,0,0,0,14-20.82c.77-3.86,1.63-7.71,2.49-11.56a7.6,7.6,0,0,1,7.49-6.3c3.67,0,6.53,2.52,7.38,6.41.67,3.06,1.4,6.11,2,9.19.17.91.43,1.19,1.36.94,7.47-2,15-3.93,22.42-6a6,6,0,0,0,4.24-7c-.17-.92-.8-.61-1.28-.62-3.9,0-7.81.06-11.71,0A16.84,16.84,0,0,1,94.91,78.81a19.6,19.6,0,0,1-.32-4.39c.06-2.78,1.47-4.19,4.26-4.2q12.16,0,24.33,0Zm-15.54,63.21-2.57-1.73A34.78,34.78,0,0,1,92.57,110c-1-4.39-1.93-8.79-2.93-13.18-.4-1.77-1.5-2.68-3-2.63a3,3,0,0,0-2.84,2.68c-.72,3.26-1.54,6.5-2.11,9.79-2,11.23-7.5,20.06-17.29,26.1-.2.12-.62.18-.49.67Zm15.56-58.64H100.55c-.63,0-1.4-.33-1.41.93,0,6.31,5.25,12.11,11.58,12.21q14.75.24,29.5,0c6.29-.09,11.43-5.47,11.72-11.76.06-1.12-.2-1.43-1.36-1.42C142.27,74.81,134,74.78,125.64,74.78Z"/><path class="cls-1" d="M62.1,138.78a5.43,5.43,0,0,1-4-1.34,4.6,4.6,0,0,1-1.46-3.65,4.76,4.76,0,0,1,2-3.54c1.09-.82,2.25-1.56,3.36-2.29l.45-.29a30.47,30.47,0,0,0,13.66-20.35c.69-3.46,1.45-6.91,2.22-10.36l.27-1.22a8.35,8.35,0,0,1,8.13-6.88h.09c4,0,7.16,2.78,8.09,7,.21,1,.43,2,.65,2.92.47,2.09.94,4.18,1.35,6.29a2.49,2.49,0,0,0,.13.45s.13,0,.33-.08c3-.8,6-1.58,9-2.37,4.49-1.19,9-2.37,13.44-3.59a5.21,5.21,0,0,0,3.72-6.13c0-.07-.1-.06-.17,0l-.4,0h-4.35c-2.46,0-4.91,0-7.37,0A17.61,17.61,0,0,1,94.19,79a19.84,19.84,0,0,1-.33-4.55c.06-3.21,1.79-4.92,5-4.93,5.73,0,11.45,0,17.18,0h35.74c2,0,3.3.42,4.18,1.32S157.24,73,157.24,75c0,10.54-7.69,18.23-18.24,18.29-3,0-6,0-9,0a1.25,1.25,0,0,0-.52,0,2.61,2.61,0,0,0,0,.47c-.07,6.54-2.95,10.2-9.35,11.87l-7,1.83c-4.65,1.23-9.31,2.45-14,3.63-.54.14-.66.23-.68.26h0a2.41,2.41,0,0,0,.17.63,30.4,30.4,0,0,0,11.67,15.12c.58.4,1.18.8,1.77,1.19.89.59,1.78,1.17,2.64,1.79a4.67,4.67,0,0,1,2,5.16,4.77,4.77,0,0,1-4.48,3.47,6,6,0,0,1-.6,0H62.1ZM86.7,90.33A6.92,6.92,0,0,0,80,96.05l-.27,1.23c-.76,3.44-1.53,6.88-2.21,10.33a31.88,31.88,0,0,1-14.3,21.29l-.45.3c-1.1.71-2.23,1.44-3.28,2.22a3.35,3.35,0,0,0-1.41,2.46,3.24,3.24,0,0,0,1,2.51,4,4,0,0,0,3,.92h50a3.33,3.33,0,0,0,3.17-2.39,3.25,3.25,0,0,0-1.42-3.59c-.85-.6-1.73-1.18-2.6-1.76-.6-.4-1.2-.79-1.79-1.2a31.91,31.91,0,0,1-12.23-15.83,1.83,1.83,0,0,1,1.54-2.81c4.66-1.18,9.31-2.4,14-3.63l7-1.84c5.8-1.51,8.19-4.54,8.25-10.46a2.11,2.11,0,0,1,.5-1.52,2.08,2.08,0,0,1,1.55-.45c3,.06,6,0,9,0,9.86-.06,16.76-7,16.78-16.82a4.4,4.4,0,0,0-.87-3.19,4.24,4.24,0,0,0-3.13-.88H98.86c-2.39,0-3.48,1.08-3.54,3.49a18.62,18.62,0,0,0,.31,4.22,16.15,16.15,0,0,0,15.59,13.15c2.45.07,4.89,0,7.33,0,1.45,0,2.91,0,4.37,0l.21,0a1.42,1.42,0,0,1,1.78,1.24,6.72,6.72,0,0,1-4.77,7.81c-4.48,1.22-9,2.4-13.45,3.59-3,.79-6,1.57-9,2.37a1.89,1.89,0,0,1-1.5-.09,2,2,0,0,1-.78-1.42c-.41-2.09-.87-4.17-1.34-6.24l-.66-2.94c-.78-3.56-3.34-5.8-6.67-5.83Zm25.8,43.82H63.33l-.14-.54a1.14,1.14,0,0,1,.75-1.46c9.46-5.83,15-14.21,17-25.63.41-2.39,1-4.79,1.5-7.1.21-.91.41-1.81.62-2.72a3.69,3.69,0,0,1,3.53-3.25c2,0,3.28,1.1,3.76,3.2s1,4.4,1.47,6.6,1,4.39,1.46,6.58a34.19,34.19,0,0,0,14.64,21.26Zm-46.65-1.47h41.82l-.57-.38a35.69,35.69,0,0,1-15.25-22.14c-.5-2.2-1-4.4-1.46-6.6s-1-4.39-1.46-6.58c-.31-1.37-1.05-2.06-2.18-2.06h-.1A2.33,2.33,0,0,0,84.5,97c-.2.91-.41,1.82-.62,2.73-.53,2.29-1.08,4.67-1.49,7C80.42,118,74.85,126.74,65.85,132.68Zm59.69-43.9q-7.55,0-14.83-.12c-6.57-.1-12.31-6.15-12.3-12.94a1.76,1.76,0,0,1,.48-1.36,1.73,1.73,0,0,1,1.39-.32l.27,0q9.75,0,19.51,0h11.49q9.52,0,19,0a2.33,2.33,0,0,1,1.67.5,2.23,2.23,0,0,1,.44,1.69c-.32,6.77-5.9,12.36-12.45,12.46C135.29,88.74,130.38,88.78,125.54,88.78ZM99.88,75.48a1.8,1.8,0,0,1,0,.24c0,6,5.06,11.38,10.85,11.47,9.51.16,19.42.16,29.48,0,5.78-.08,10.72-5,11-11.06a1.53,1.53,0,0,0,0-.61s-.11,0-.56,0h0c-6.34,0-12.69,0-19,0h-31l-.4,0Z"/><path class="cls-1" d="M27.55,72.65c.13-1.15-.27-2.69.25-4.18.17-.47-.15-.88-.3-1.3a18.46,18.46,0,0,1-1.25-6.52,5.57,5.57,0,0,0-2.07-4.48C18.21,50.63,16,43.78,18,35.91s7.26-13,15.22-14.92A20.44,20.44,0,0,1,51.58,56.06a5.58,5.58,0,0,0-2.2,4.72,6.61,6.61,0,0,1-.32,2.7c-1.53,3.84-.9,7.83-1,11.77-.09,5-2.87,9-7.27,10.26A10.27,10.27,0,0,1,27.56,76C27.51,75,27.55,74,27.55,72.65ZM40.08,60.93v3.49c0,2.28,0,2.24,2.22,2.25a1.26,1.26,0,0,0,1.44-1,12.9,12.9,0,0,0,1-4.56c-.13-3.76,1.49-6.45,4.21-9A15.85,15.85,0,0,0,33.86,25.54,15.25,15.25,0,0,0,22.4,37.14a15.08,15.08,0,0,0,4.9,15.68,9.49,9.49,0,0,1,3.5,7.57,19.93,19.93,0,0,0,.63,4.19c.35,1.65,1.12,2.32,2.89,2.13,1-.12,1.22-.39,1.21-1.32-.06-2.94-.05-5.88,0-8.82a3,3,0,0,0-.82-2.17c-1.57-1.79-3.08-3.63-4.6-5.47-1.25-1.5-1.3-2.76-.18-3.73s2.46-.65,3.65.77,2.26,2.6,3.31,4c.66.87,1.07,1.11,1.85.05,1.13-1.55,2.41-3,3.68-4.44a2.3,2.3,0,0,1,3.26-.38,2.27,2.27,0,0,1,.26,3.25,23.45,23.45,0,0,1-2.34,2.8C40.8,53.89,39.1,56.91,40.08,60.93ZM37.81,71.21c-1.61,0-3.23,0-4.85,0-.65,0-.89.19-.87.86,0,1.31,0,2.63,0,3.94a5.69,5.69,0,0,0,5.52,5.4,5.6,5.6,0,0,0,5.77-5.08c.15-1.35,0-2.73.11-4.09,0-.79-.21-1.06-1-1C41,71.26,39.38,71.21,37.81,71.21Z"/><path class="cls-1" d="M37.8,86.69a10.93,10.93,0,0,1-6.34-2,11.1,11.1,0,0,1-4.64-8.6c0-.69,0-1.38,0-2.18V72.57a8.54,8.54,0,0,0,0-1.24,8.07,8.07,0,0,1,.29-3.1,1,1,0,0,0-.14-.42c-.06-.13-.12-.26-.17-.39a18.86,18.86,0,0,1-1.28-6.79,4.86,4.86,0,0,0-1.84-3.92c-6.21-5.76-8.42-13-6.37-21s7.52-13.43,15.75-15.44a21.17,21.17,0,0,1,19,36.32,4.8,4.8,0,0,0-2,4.14,7.05,7.05,0,0,1-.38,3c-1.1,2.76-1,5.58-1,8.56,0,1,.05,2,0,3-.1,5.35-3.08,9.54-7.79,10.94A11,11,0,0,1,37.8,86.69Zm-9.52-14V73.9c0,.77,0,1.44,0,2.11a9.61,9.61,0,0,0,4,7.46,9.51,9.51,0,0,0,8.3,1.34c4.07-1.22,6.66-4.88,6.74-9.57,0-1,0-1.93,0-2.89-.07-3-.15-6.11,1-9.14a5.62,5.62,0,0,0,.28-2.39,6.27,6.27,0,0,1,2.43-5.31,19.7,19.7,0,0,0-17.67-33.8c-7.78,1.9-12.72,6.73-14.68,14.38s.07,14.09,5.95,19.54a6.24,6.24,0,0,1,2.3,5,17.59,17.59,0,0,0,1.21,6.27,2,2,0,0,0,.11.26,1.93,1.93,0,0,1,.2,1.53,6.82,6.82,0,0,0-.22,2.54A8.52,8.52,0,0,1,28.28,72.69Zm9.59,9.44h-.24a6.39,6.39,0,0,1-6.23-6.08c0-.75,0-1.49,0-2.24,0-.57,0-1.15,0-1.72a1.58,1.58,0,0,1,.38-1.22,1.52,1.52,0,0,1,1.24-.4c1.14,0,2.28,0,3.42,0h2.8c1.09,0,2.19,0,3.28,0a1.89,1.89,0,0,1,1.38.43,1.79,1.79,0,0,1,.4,1.38c0,.56,0,1.12,0,1.68a22.57,22.57,0,0,1-.09,2.45A6.31,6.31,0,0,1,37.87,82.13Zm-5-10.19a.41.41,0,0,0,0,.1c0,.59,0,1.19,0,1.79s0,1.42,0,2.12a5,5,0,0,0,4.82,4.71h.18a4.85,4.85,0,0,0,4.83-4.42A21.24,21.24,0,0,0,42.77,74c0-.59,0-1.18,0-1.77a1.16,1.16,0,0,0,0-.27h-.25c-1.12,0-2.24,0-3.35,0H36.41c-1.15,0-2.31,0-3.46,0Zm1-4.47c-1.7,0-2.68-.88-3.07-2.74L30.56,64a16.06,16.06,0,0,1-.49-3.64,8.75,8.75,0,0,0-3.26-7A15.81,15.81,0,0,1,21.69,37a16,16,0,0,1,12-12.13A16.58,16.58,0,0,1,49.48,52.72c-2.9,2.67-4.08,5.18-4,8.39a12.92,12.92,0,0,1-1,4.64l-.06.2A2,2,0,0,1,42.3,67.4c-2.63,0-3-.33-3-3V61c-1.15-4.92,1.58-8.25,3.74-10.32a20.76,20.76,0,0,0,2-2.41l.22-.3a1.54,1.54,0,0,0-.14-2.24A1.57,1.57,0,0,0,43,46l-.27.31c-1.15,1.31-2.34,2.66-3.37,4.08a2,2,0,0,1-1.48,1h0a2.09,2.09,0,0,1-1.53-1c-.75-1-1.57-1.94-2.38-2.88L33,46.44a2.59,2.59,0,0,0-1.63-1,1.18,1.18,0,0,0-1,.36c-.35.3-1.16,1,.26,2.7l.88,1.06C32.76,51,34,52.47,35.25,53.91a3.7,3.7,0,0,1,1,2.67c0,3,0,6,0,8.79,0,1.35-.48,1.91-1.85,2.07Zm4.13-41.74a14.64,14.64,0,0,0-3.86.52A14.43,14.43,0,0,0,23.12,37.32a14.23,14.23,0,0,0,4.67,15,10.26,10.26,0,0,1,3.75,8.13A14.25,14.25,0,0,0,32,63.7l.15.73c.28,1.35.76,1.69,2.09,1.55a1.43,1.43,0,0,0,.54-.12h0a3,3,0,0,0,0-.46c0-2.82,0-5.8,0-8.84a2.27,2.27,0,0,0-.64-1.68c-1.27-1.45-2.51-2.94-3.74-4.42l-.88-1.05c-2-2.46-.93-4-.09-4.77a2.73,2.73,0,0,1,2.06-.7,3.94,3.94,0,0,1,2.63,1.55l.9,1c.83,1,1.66,1.94,2.43,3a2.66,2.66,0,0,0,.38.44s.13-.15.29-.37c1.07-1.47,2.29-2.85,3.46-4.19l.27-.31a3,3,0,1,1,4.65,3.81l-.22.3a23.17,23.17,0,0,1-2.19,2.58c-3.09,3-4.1,5.73-3.31,9l0,.18v3.49a6.4,6.4,0,0,0,.08,1.48,12.93,12.93,0,0,0,1.32,0h0c.63,0,.7-.06.84-.47l.07-.2A11.69,11.69,0,0,0,44,61.17c-.12-3.64,1.24-6.58,4.44-9.53A14.91,14.91,0,0,0,51,33.42,15.18,15.18,0,0,0,37.91,25.73Z"/><path class="cls-1" d="M125.55,31.31c1.52-1.8,2.93-3.51,4.38-5.19,1.15-1.34,2.49-1.53,3.55-.57s1,2.15-.07,3.49c-1.54,1.88-3.09,3.76-4.69,5.59a3.2,3.2,0,0,0-.89,2.3c.07,2.94.06,5.88,0,8.82,0,.88.16,1.13,1.13,1.24,1.78.22,2.52-.52,2.91-2.14a22.16,22.16,0,0,0,.7-4.79,8.91,8.91,0,0,1,3.28-6.74,15.69,15.69,0,0,0,4.25-18.48c-.48-1.17-.65-2.26.4-3.19,1.25-1.1,3-.55,3.76,1.24A20.29,20.29,0,0,1,143.53,31,18.2,18.2,0,0,1,139,36.68a4.66,4.66,0,0,0-1.84,3.81,19.41,19.41,0,0,1-1.4,7.11c-.28.7,0,1.26,0,1.89,0,2.83.35,5.69-.18,8.49a10.19,10.19,0,0,1-20.19-1.35,34.06,34.06,0,0,1,.17-7.88,2.41,2.41,0,0,0-.33-1.29,20.06,20.06,0,0,1-1.27-6.84,4.83,4.83,0,0,0-1.83-3.95,20.09,20.09,0,0,1-7-17.21C106.16,4.73,123-4,135.8,3.48c1.53.89,2,2.13,1.39,3.37s-2,1.49-3.68.59c-9-4.93-19.88-.84-23,8.81-2.1,6.43-.54,12.15,4.41,16.74,2.35,2.18,3.7,4.57,3.63,7.81a13.45,13.45,0,0,0,1.1,5.32c.64,1.58,2,.66,3,.77s.61-.86.61-1.35c0-2.89,0-5.78,0-8.67a2.78,2.78,0,0,0-.77-2c-1.62-1.87-3.2-3.79-4.78-5.7-1.14-1.39-1.16-2.7-.1-3.62s2.42-.7,3.65.74Zm0,20.19h-1.22c-4.74,0-4.74,0-4.43,4.75a5.69,5.69,0,0,0,5.76,5.48A5.75,5.75,0,0,0,131.23,56c0-1.12,0-2.23,0-3.34.05-.91-.17-1.27-1.16-1.22C128.59,51.57,127.06,51.5,125.54,51.5Z"/><path class="cls-1" d="M125.63,67q-.37,0-.75,0a10.87,10.87,0,0,1-10.24-10.34l0-.62a32.06,32.06,0,0,1,.2-7.44,1,1,0,0,0-.14-.54,2.87,2.87,0,0,1-.15-.37,20.38,20.38,0,0,1-1.31-7.09,4.13,4.13,0,0,0-1.59-3.39,20.81,20.81,0,0,1-7.23-17.81A20.73,20.73,0,0,1,115.62,2.52a21.07,21.07,0,0,1,20.56.32c1.85,1.09,2.49,2.76,1.66,4.35a2.78,2.78,0,0,1-1.65,1.41,4,4,0,0,1-3-.52,15.64,15.64,0,0,0-13.28-1,15,15,0,0,0-8.69,9.35c-2,6.15-.59,11.53,4.21,16,2.7,2.51,3.93,5.16,3.87,8.36a12.7,12.7,0,0,0,1,5c.21.54.41.55,1.28.4a4.9,4.9,0,0,1,1-.09.5.5,0,0,1,0-.12,3.24,3.24,0,0,1,0-.5c0-1.42,0-2.84,0-4.26s0-2.94,0-4.41a2.06,2.06,0,0,0-.59-1.53c-1.63-1.89-3.22-3.81-4.8-5.73-1.38-1.67-1.38-3.45,0-4.64a2.81,2.81,0,0,1,2.08-.74,3.9,3.9,0,0,1,2.61,1.57l3.69,4.38.81-1c1-1.21,2-2.39,3-3.55a3.65,3.65,0,0,1,2.5-1.42A2.89,2.89,0,0,1,134,25c1.36,1.22,1.36,2.87,0,4.51-1.55,1.88-3.1,3.76-4.7,5.6a2.48,2.48,0,0,0-.72,1.81c.06,2.69.07,5.59,0,8.85a1.22,1.22,0,0,0,0,.42s.13,0,.45.07c1.32.17,1.78-.19,2.12-1.58a21.46,21.46,0,0,0,.68-4.64,9.6,9.6,0,0,1,3.53-7.27,15,15,0,0,0,4.06-17.65,3.28,3.28,0,0,1,.59-4,2.73,2.73,0,0,1,2.52-.68,3.54,3.54,0,0,1,2.4,2.19,21.05,21.05,0,0,1-.77,18.77,19,19,0,0,1-4.74,5.87,4,4,0,0,0-1.57,3.24,20.28,20.28,0,0,1-1.45,7.38,1.58,1.58,0,0,0,0,.9,5.51,5.51,0,0,1,.08.71c0,.69,0,1.37.06,2.06a29.72,29.72,0,0,1-.25,6.58A11,11,0,0,1,125.63,67Zm.07-65.57a20.13,20.13,0,0,0-9.39,2.35,19.28,19.28,0,0,0-10.46,15.69,19.42,19.42,0,0,0,6.74,16.61,5.56,5.56,0,0,1,2.09,4.51,18.91,18.91,0,0,0,1.22,6.59l.11.26a2.31,2.31,0,0,1,.25,1.4,30.66,30.66,0,0,0-.19,7.1l0,.61a9.42,9.42,0,0,0,8.88,9,9.55,9.55,0,0,0,9.85-7.7,27.67,27.67,0,0,0,.23-6.26c0-.69,0-1.39-.06-2.09A4.26,4.26,0,0,0,135,49a3,3,0,0,1,.1-1.67,18.68,18.68,0,0,0,1.35-6.84,5.41,5.41,0,0,1,2.11-4.38,17.22,17.22,0,0,0,4.36-5.41,19.58,19.58,0,0,0,.72-17.52,2.09,2.09,0,0,0-1.37-1.33,1.32,1.32,0,0,0-1.22.35c-.64.57-.7,1.18-.21,2.36a16.39,16.39,0,0,1-4.44,19.31,8.16,8.16,0,0,0-3,6.21,22.6,22.6,0,0,1-.73,5c-.31,1.31-1.09,3-3.71,2.69-1.32-.16-1.8-.69-1.78-2,.06-3.24.05-6.11,0-8.79a3.84,3.84,0,0,1,1.07-2.8c1.59-1.83,3.13-3.7,4.67-5.58,1.24-1.49.44-2.21.14-2.48a1.38,1.38,0,0,0-1-.4,2.26,2.26,0,0,0-1.48.9c-1,1.16-2,2.34-3,3.55l-1.94,2.31-4.82-5.71a2.53,2.53,0,0,0-1.59-1,1.24,1.24,0,0,0-1,.38c-.76.66-.7,1.53.17,2.6,1.58,1.91,3.16,3.82,4.78,5.69a3.58,3.58,0,0,1,1,2.53c0,1.46,0,2.92,0,4.38s0,2.86,0,4.28a2.6,2.6,0,0,0,0,.26,1.63,1.63,0,0,1-.27,1.46,1.34,1.34,0,0,1-1.18.35,3,3,0,0,0-.76.07c-.82.14-2.2.37-2.88-1.29a14,14,0,0,1-1.15-5.62c0-2.78-1-5-3.4-7.25-5.18-4.8-6.77-10.86-4.6-17.51a16.38,16.38,0,0,1,9.54-10.25,17.16,17.16,0,0,1,14.53,1,2.66,2.66,0,0,0,1.9.41,1.32,1.32,0,0,0,.78-.7c.58-1.1-.29-1.91-1.11-2.39A19.18,19.18,0,0,0,125.7,1.47Zm-.18,61a6.46,6.46,0,0,1-6.36-6.17c-.17-2.59-.25-3.88.52-4.71s2.07-.82,4.65-.82h2.58c1,0,2.1,0,3.15,0a1.62,1.62,0,0,1,1.93,2c0,.62,0,1.25,0,1.87s0,1,0,1.45a6.47,6.47,0,0,1-6.3,6.41Zm-1.19-10.23c-2,0-3.24,0-3.58.36s-.25,1.65-.13,3.6A4.94,4.94,0,0,0,130.5,56c0-.46,0-.93,0-1.39,0-.66,0-1.32,0-2a1.6,1.6,0,0,0,0-.44h-.36c-1.09.06-2.18.05-3.26,0Z"/><path class="cls-1" d="M46,89.83h18.1c3.31,0,4.74,1.44,4.74,4.72,0,10.31-7.39,17.69-17.73,17.72-3.24,0-6.49,0-9.73,0-1,0-1.51.17-1.35,1.3a14.37,14.37,0,0,1,0,2c0,3.49,2.11,5.14,5.44,4.27q8.81-2.31,17.6-4.65c.44-.11.88-.25,1.32-.34a2.29,2.29,0,0,1,2.84,1.62,2.22,2.22,0,0,1-1.68,2.8c-2.53.71-5.08,1.34-7.62,2-3.87,1-7.73,2-11.6,3-5.87,1.52-10.81-2.32-10.87-8.42,0-1.15.5-2.71-.23-3.33s-2.21-.18-3.37-.22c-3.64-.13-7.3.32-10.93-.3a17.07,17.07,0,0,1-14-18.65,3.69,3.69,0,0,1,3.63-3.45c1.87-.11,3.76-.09,5.63,0a2.24,2.24,0,0,1,2.34,2.43c-.08,1.31-.93,2.06-2.47,2.11a22.63,22.63,0,0,1-3.19,0c-1.33-.16-1.47.46-1.4,1.56a12.45,12.45,0,0,0,12.27,11.74q14.07.12,28.14,0A12.47,12.47,0,0,0,64.23,95.6c.06-1.33-.64-1.2-1.49-1.2H28.52c-.56,0-1.12,0-1.68,0a2.28,2.28,0,0,1-2.31-2.15,2.35,2.35,0,0,1,2.11-2.37,10.45,10.45,0,0,1,1.37,0Z"/><path class="cls-1" d="M43.75,125.32a8.89,8.89,0,0,1-5.48-1.81,9.55,9.55,0,0,1-3.58-7.67,10.46,10.46,0,0,1,.09-1.2c.06-.55.16-1.4-.05-1.57A3.58,3.58,0,0,0,33,113a10.29,10.29,0,0,1-1.21.05c-1.26,0-2.51,0-3.76,0a39.49,39.49,0,0,1-7.27-.31c-7.91-1.34-15.48-8.45-14.63-19.44a4.4,4.4,0,0,1,4.32-4.12c2.08-.13,4.13-.08,5.69,0a3.15,3.15,0,0,1,2.31,1,3,3,0,0,1,.74,2.22c-.09,1.7-1.28,2.75-3.18,2.8l-.6,0a18.63,18.63,0,0,1-2.69,0c-.45,0-.56,0-.56,0a1.78,1.78,0,0,0,0,.76A11.77,11.77,0,0,0,23.69,107c8.94.07,18.15.07,28.13,0A11.74,11.74,0,0,0,63.49,95.56a1.1,1.1,0,0,0,0-.45l-.5,0H28.05c-.43,0-.84,0-1.25,0a3,3,0,0,1-.26-6,6.4,6.4,0,0,1,1.16-.05H64.06c3.73,0,5.47,1.74,5.47,5.46,0,10.67-7.76,18.43-18.45,18.45H48.8c-2.49,0-5,0-7.47,0a1.69,1.69,0,0,0-.64.05,4,4,0,0,0,0,.41,9,9,0,0,1,0,1.46c0,.2,0,.41,0,.61A3.89,3.89,0,0,0,42,118.73a3.75,3.75,0,0,0,3.3.34c4.45-1.16,8.9-2.34,13.34-3.51l4.71-1.25c.3-.08.6-.17.91-.23a3,3,0,0,1,3.7,2.14,2.92,2.92,0,0,1-.24,2.23,3.18,3.18,0,0,1-2,1.48c-1.73.48-3.48.93-5.22,1.38L54,123q-3.74,1-7.47,1.95A11,11,0,0,1,43.75,125.32Zm-9.82-13.87a2.59,2.59,0,0,1,1.74.49c.82.68.69,1.84.57,2.87a9.32,9.32,0,0,0-.08,1,8.07,8.07,0,0,0,3,6.52,7.91,7.91,0,0,0,6.95,1.2q3.74-1,7.47-2l6.55-1.7c1.73-.45,3.46-.89,5.19-1.38a1.75,1.75,0,0,0,1.06-.77,1.49,1.49,0,0,0,.11-1.12,1.56,1.56,0,0,0-2-1.1,8,8,0,0,0-.81.21L59,117,45.63,120.5a5.15,5.15,0,0,1-4.57-.61,5.25,5.25,0,0,1-1.79-4.36c0-.23,0-.45,0-.67a7,7,0,0,0,0-1.21,2,2,0,0,1,.34-1.6,2.29,2.29,0,0,1,1.75-.53c2.48,0,5,0,7.44,0h2.29c10,0,17-7,17-17,0-2.86-1.12-4-4-4H27.68a5.75,5.75,0,0,0-.93,0,1.61,1.61,0,0,0-1.49,1.61,1.57,1.57,0,0,0,1.63,1.45c.38,0,.76,0,1.14,0H62.94a2,2,0,0,1,1.59.46A2,2,0,0,1,65,95.63a13.2,13.2,0,0,1-13.13,12.79c-10,.07-19.21.07-28.15,0A13.26,13.26,0,0,1,10.68,96a2.32,2.32,0,0,1,.49-1.92,2.09,2.09,0,0,1,1.73-.41,17,17,0,0,0,2.48,0l.61,0c1.51,0,1.72-.83,1.75-1.41a1.52,1.52,0,0,0-.35-1.15,1.79,1.79,0,0,0-1.28-.51c-1.52,0-3.53-.1-5.55,0a3,3,0,0,0-2.95,2.78C6.83,103.49,13.77,110,21,111.26a37.05,37.05,0,0,0,7,.29c1.29,0,2.57,0,3.85,0,.36,0,.69,0,1,0S33.6,111.45,33.93,111.45Z"/><path class="cls-1" d="M69.24,44.45c-1.06,0-2.12,0-3.18,0a2.3,2.3,0,0,1-2.3-2.17A2.27,2.27,0,0,1,66,39.91c2.22-.07,4.45-.07,6.67,0a2.28,2.28,0,0,1,2.23,2.24,2.31,2.31,0,0,1-2.34,2.29C71.47,44.49,70.35,44.45,69.24,44.45Z"/><path class="cls-1" d="M71.28,45.2h-3c-.75,0-1.51,0-2.26,0a3,3,0,0,1-3-2.86,3,3,0,0,1,.78-2.16,3.1,3.1,0,0,1,2.18-1c2.24-.07,4.5-.06,6.71,0a3,3,0,0,1-.1,6Zm-2-1.49h1c.78,0,1.56,0,2.34,0a1.57,1.57,0,0,0,1.63-1.54,1.54,1.54,0,0,0-1.51-1.52c-2.19-.07-4.42-.07-6.62,0a1.62,1.62,0,0,0-1.15.51,1.5,1.5,0,0,0-.39,1.09,1.53,1.53,0,0,0,1.59,1.46c.73,0,1.45,0,2.18,0Z"/><path class="cls-1" d="M69.46,21.23a2.72,2.72,0,0,1-1.1,1.94c-1.43,1.14-2.83,2.31-4.27,3.43-1.25,1-2.49.9-3.37-.13S60,24.11,61.25,23c1.48-1.24,3-2.43,4.5-3.62a2.11,2.11,0,0,1,2.55-.18A2.32,2.32,0,0,1,69.46,21.23Z"/><path class="cls-1" d="M62.34,28A2.84,2.84,0,0,1,60.16,27a2.92,2.92,0,0,1-.75-2.13,3.51,3.51,0,0,1,1.37-2.35c1.48-1.23,3-2.43,4.52-3.63a2.86,2.86,0,0,1,3.38-.24,3.08,3.08,0,0,1,1.51,2.59v.11a3.49,3.49,0,0,1-1.38,2.45l-1.63,1.32c-.87.71-1.75,1.42-2.64,2.11A3.62,3.62,0,0,1,62.34,28Zm4.8-8.39a1.47,1.47,0,0,0-.93.37c-1.51,1.18-3,2.37-4.48,3.6a2.09,2.09,0,0,0-.86,1.34,1.41,1.41,0,0,0,.41,1c.63.75,1.43.75,2.36,0s1.75-1.39,2.61-2.09L67.9,22.6a2,2,0,0,0,.82-1.38,1.59,1.59,0,0,0-.79-1.35A1.54,1.54,0,0,0,67.14,19.63Z"/><path class="cls-1" d="M15.44,25.08a2.2,2.2,0,0,1-3.39,1.85,54.94,54.94,0,0,1-5.19-4.19,2,2,0,0,1-.11-3,2,2,0,0,1,3-.41c1.71,1.27,3.33,2.64,5,4A2.12,2.12,0,0,1,15.44,25.08Z"/><path class="cls-1" d="M13.22,28a2.8,2.8,0,0,1-1.59-.5,56.18,56.18,0,0,1-5.26-4.25,2.75,2.75,0,0,1-.18-4,2.77,2.77,0,0,1,4-.52c1.37,1,2.69,2.1,4,3.16l1,.84a2.78,2.78,0,0,1,1,2.34h0a3.07,3.07,0,0,1-1.67,2.64A2.93,2.93,0,0,1,13.22,28ZM8.43,19.6a1.52,1.52,0,0,0-1.12.62,1.29,1.29,0,0,0,0,2,53.3,53.3,0,0,0,5.12,4.14,1.32,1.32,0,0,0,1.37.09,1.58,1.58,0,0,0,.86-1.36,1.3,1.3,0,0,0-.46-1.17l-1-.84C12,22,10.63,20.92,9.29,19.93A1.4,1.4,0,0,0,8.43,19.6Z"/><path class="cls-1" d="M30.27,15.76c-.05,1.37-.55,2.16-1.56,2.48a2,2,0,0,1-2.63-.93c-1-2-1.82-4-2.58-6.11a1.94,1.94,0,0,1,1.16-2.51,2,2,0,0,1,2.61.47A39.19,39.19,0,0,1,30.27,15.76Z"/><path class="cls-1" d="M27.83,19.12a2.58,2.58,0,0,1-2.41-1.49c-1-2-1.84-4.08-2.61-6.18A2.68,2.68,0,0,1,24.34,8a2.65,2.65,0,0,1,3.54.72,25.76,25.76,0,0,1,2.38,5c.23.59.45,1.16.68,1.71l.07.15v.16a3,3,0,0,1-2.07,3.15A3.66,3.66,0,0,1,27.83,19.12Zm-2-10a2.18,2.18,0,0,0-.86.21,1.25,1.25,0,0,0-.78,1.59C24.94,13,25.8,15,26.74,17a1.32,1.32,0,0,0,1.74.55c.48-.15,1-.47,1-1.64-.21-.52-.42-1.06-.63-1.6a24.12,24.12,0,0,0-2.24-4.74A.93.93,0,0,0,25.83,9.14Z"/><path class="cls-1" d="M52.21,11.14a35.16,35.16,0,0,1-3,6.52,2,2,0,0,1-2.74.39,2,2,0,0,1-1-2.59c.76-2,1.63-4,2.58-6a2,2,0,0,1,2.62-.92C51.72,8.89,52.22,9.68,52.21,11.14Z"/><path class="cls-1" d="M47.82,19.15a3.61,3.61,0,0,1-1.66-.45,2.75,2.75,0,0,1-1.34-3.5c.72-1.94,1.6-4,2.6-6a2.73,2.73,0,0,1,3.5-1.3c1.36.42,2,1.52,2,3.27l0,.27c-.19.46-.38.95-.57,1.45a25.38,25.38,0,0,1-2.46,5.19A2.38,2.38,0,0,1,47.82,19.15Zm2-10a1.13,1.13,0,0,0-1.09.66c-1,2-1.83,4-2.54,5.88a1.27,1.27,0,0,0,.67,1.69c.37.21,1.29.58,1.77-.15A24.05,24.05,0,0,0,51,12.35c.17-.47.35-.92.52-1.35,0-1.25-.48-1.57-1-1.72A2.12,2.12,0,0,0,49.82,9.17Z"/><path class="cls-1" d="M90.18,123.17a3.41,3.41,0,0,1-3.44,3.46,3.46,3.46,0,0,1-3.5-3.42,3.51,3.51,0,0,1,3.46-3.49A3.46,3.46,0,0,1,90.18,123.17Z"/><path class="cls-1" d="M86.72,127.37a4.21,4.21,0,0,1-4.22-4.15A4.27,4.27,0,0,1,86.7,119h0a4.18,4.18,0,0,1,3,1.21,4.22,4.22,0,0,1,1.25,3h0a4.17,4.17,0,0,1-4.18,4.2Zm0-6.91h0a2.72,2.72,0,1,0,0,5.44,2.68,2.68,0,0,0,2.71-2.72h0a2.69,2.69,0,0,0-.81-1.93A2.73,2.73,0,0,0,86.72,120.46Z"/></g></g></svg>