<svg xmlns="http://www.w3.org/2000/svg" viewBox="0 0 94.44 92.12"><defs><style>.cls-1{fill:#fff;}</style></defs><g id="Capa_2" data-name="Capa 2"><g id="Capa_1-2" data-name="Capa 1"><path class="cls-1" d="M0,43.05c1.78,0,3.56,0,5.34,0,.57,0,.74.18.73.74,0,1.53,0,3.06,0,4.6,0,.56-.16.75-.73.74-1.78,0-3.56,0-5.34,0Z"/><path class="cls-1" d="M82.93,82.22c-7.81,0-15.63,0-23.45,0a1.21,1.21,0,0,1-1.35-1c-3.9-10.45-7.84-20.88-11.74-31.32a1.09,1.09,0,0,0-1.25-.85c-6.65,0-13.3,0-19.95,0-1,0-1.19-.29-1.14-1.19.07-1.32.06-2.65,0-4,0-.71.16-.93.91-.93,6.71,0,13.42,0,20.13,0a1.43,1.43,0,0,0,1.61-1.15c3.8-10.41,7.65-20.81,11.47-31.22.2-.53.4-.78,1-.77Q71,10,82.74,10c1.29.65,2.05,1.88,3.07,2.82a.33.33,0,0,1,0,.33c-1,.94-1.78,2.17-3.08,2.82-6.37,0-12.74,0-19.11,0a1.1,1.1,0,0,0-1.26.85Q57.7,29.49,53,42.19c-.19.49-.44.88.47.88q14.73,0,29.46,0c1,.77,1.8,1.76,2.72,2.62a.51.51,0,0,1,0,.86L83,49.12l-10.43,0c-6.33,0-12.67,0-19,0-.84,0-1,.18-.68,1q4.8,12.66,9.54,25.34c.15.4.21.79.82.78,6.59,0,13.17,0,19.75,0,.88.86,1.76,1.72,2.65,2.56.31.3.44.58.07.93C84.74,80.47,83.84,81.35,82.93,82.22Z"/><path class="cls-1" d="M82.72,15.93c1.3-.65,2.06-1.88,3.08-2.82a.33.33,0,0,0,0-.33c-1-.94-1.78-2.17-3.07-2.82.12-.44-.27-.58-.49-.8C81,7.88,79.73,6.63,78.47,5.37A3.06,3.06,0,0,1,78.25.93a3,3,0,0,1,4.44.1c3.84,3.81,7.65,7.65,11.49,11.47.34.33.36.53,0,.88C90.31,17.24,86.45,21.13,82.56,25a3,3,0,0,1-4.3,0,3,3,0,0,1,.08-4.3c1.28-1.33,2.61-2.61,3.9-3.93C82.46,16.51,82.86,16.37,82.72,15.93Z"/><path class="cls-1" d="M83,49.12l2.71-2.61a.51.51,0,0,0,0-.86c-.92-.86-1.72-1.85-2.72-2.62-1.44-1.68-3.11-3.13-4.63-4.74A3,3,0,0,1,80,33.17a2.78,2.78,0,0,1,2.45.81c3.88,3.85,7.74,7.73,11.63,11.59.42.42.34.67,0,1C90.25,50.4,86.45,54.22,82.63,58a3,3,0,1,1-4.2-4.29Z"/><path class="cls-1" d="M82.93,82.22c.91-.87,1.81-1.75,2.73-2.62.37-.35.24-.63-.07-.93-.89-.84-1.77-1.7-2.65-2.56l-4.46-4.53a3,3,0,0,1-.19-4.42,3,3,0,0,1,4.43.16C86.47,71.06,90.2,74.81,94,78.53c.54.53.46.82,0,1.31C90.2,83.54,86.49,87.28,82.76,91c-1.43,1.44-3.19,1.5-4.48.2a3,3,0,0,1,.21-4.42Z"/><path class="cls-1" d="M12,46c0-.77,0-1.54,0-2.31,0-.45.09-.67.61-.66,1.63,0,3.26,0,4.89,0,.45,0,.58.18.57.61,0,1.63,0,3.26,0,4.89,0,.45-.19.58-.61.57H12.59c-.45,0-.58-.19-.57-.61C12,47.67,12,46.84,12,46Z"/></g></g></svg>