<svg xmlns="http://www.w3.org/2000/svg" viewBox="0 0 153.54 113.25"><defs><style>.cls-1{fill:#fff;}</style></defs><g id="Capa_2" data-name="Capa 2"><g id="Capa_1-2" data-name="Capa 1"><path class="cls-1" d="M153.49,5.23V5.05a5.07,5.07,0,0,0-5-5H58.09c-4.18,0-8.38-.11-12.57,0h-.18a5.07,5.07,0,0,0-5,5V34.64h10V17.8c0-2.58.06-5.17.07-7.75h85.33c2.58,0,5.17.06,7.75.07V95.45c0,2.58,0,5.16,0,7.75H58.09c-2.57,0-5.16-.06-7.75-.07V74.64h-10V95.45c0,4.18-.11,8.39,0,12.57a1.08,1.08,0,0,1,0,.18,5.07,5.07,0,0,0,5,5h90.4c4.19,0,8.39.11,12.57,0h.18a5.05,5.05,0,0,0,5-5V17.8C153.49,13.61,153.6,9.41,153.49,5.23Z"/><path class="cls-1" d="M39.06,61.62H88c3.67,0,7.36.11,11,0h.15a5,5,0,0,0,0-10H19.59l-3.69,0L31.53,33.44l3.22-3.75c1.71-2,2.09-5.15,0-7.07-1.87-1.72-5.25-2.12-7.07,0l-23,26.72L1.47,53.09C.09,54.69-.61,57.24.69,59.15q4.41,6.51,8.83,13L23.63,93l3.27,4.82c1.46,2.16,4.46,3.32,6.84,1.79,2.15-1.39,3.36-4.53,1.79-6.84l-8.84-13L14.42,61.62H39.06Z"/></g></g></svg>