<svg xmlns="http://www.w3.org/2000/svg" viewBox="0 0 98.61 98.63"><defs><style>.cls-1{fill:#fff;}</style></defs><g id="Capa_2" data-name="Capa 2"><g id="Capa_1-2" data-name="Capa 1"><path class="cls-1" d="M98.61,36.78v53c-.15,0-.17.15-.2.28-.8,4.46-4.91,8.68-11.17,8.61-10.72-.13-21.43,0-32.15,0-3.28,0-6.55,0-9.82,0a10.24,10.24,0,0,1-10-8.86A7.24,7.24,0,0,0,32.86,85C23,75.27,13.25,65.45,3.47,55.66c-4.65-4.66-4.62-11,0-15.72,11-11,22-22,33-33A9.87,9.87,0,0,1,42.67,3.7c7-.82,14-1.92,21-3A20.09,20.09,0,0,0,68,0h1.93a8.24,8.24,0,0,1,2.15,1.7C73.8,3.46,75.55,5.2,77.32,7,79.17,5.13,81,3.33,82.79,1.5A5.28,5.28,0,0,1,84.94,0h1.15c2.68,1.19,3.07,3.31,1,5.4-1.67,1.68-3.34,3.37-5,5-.46.46-.61.7,0,1.24,1.83,1.74,3.59,3.57,5.39,5.36a2.56,2.56,0,0,1,1,2.58c-.69,2.13,0,3.76,1.48,5.25a7.11,7.11,0,0,1,.46.62C93,29.25,96,32.88,98.61,36.78ZM73.27,11.1C71.62,9.45,70,7.87,68.46,6.27a1,1,0,0,0-1-.24Q55,7.83,42.47,9.61a1.63,1.63,0,0,0-1,.52L7.33,44.3a4.75,4.75,0,0,0,0,7Q22.19,66.21,37.06,81.07a4.72,4.72,0,0,0,6.95.05Q61.16,64,78.25,46.89a1.64,1.64,0,0,0,.53-1q1.77-12.57,3.59-25.12a.89.89,0,0,0-.25-.86c-1.49-1.46-3-2.94-4.42-4.43-.31-.31-.47-.27-.75,0-1.08,1.1-2.16,2.2-3.27,3.26-.39.37-.35.58,0,.91.55.49,1.07,1,1.57,1.56a2.92,2.92,0,0,1,0,4.08,2.84,2.84,0,0,1-4.06.05Q67.09,21.3,63,17.14a2.83,2.83,0,0,1,.05-4.06,2.92,2.92,0,0,1,4.08.05c.56.52,1.1,1.07,1.63,1.63.28.3.47.32.77,0C70.76,13.55,72,12.34,73.27,11.1ZM86.89,30.6a2.72,2.72,0,0,0-.18.45c-.78,5.48-1.58,11-2.33,16.46A4.69,4.69,0,0,1,83,50.36Q65.81,67.51,48.68,84.67a11.3,11.3,0,0,1-7.21,3.64c-.61,0-.62.26-.49.78a4.8,4.8,0,0,0,4.85,3.72h42a4.79,4.79,0,0,0,5-5q0-24.31,0-48.61c0-.28.08-.58-.12-.84Z"/><path class="cls-1" d="M36.45,68.39a2.87,2.87,0,0,1-2.63-4c1-3,2-5.95,3-8.92L47.22,24.15C48,21.83,50.41,21,52,22.55A3,3,0,0,1,52.71,26q-3.49,10.41-7,20.84-3.21,9.64-6.44,19.3A2.86,2.86,0,0,1,36.45,68.39Z"/><path class="cls-1" d="M51,45.1a8.66,8.66,0,1,1,8.71,8.65A8.71,8.71,0,0,1,51,45.1ZM59.57,48a2.89,2.89,0,0,0,2.93-2.79,2.88,2.88,0,1,0-5.75-.12A2.89,2.89,0,0,0,59.57,48Z"/><path class="cls-1" d="M26.92,53.75a8.67,8.67,0,0,1,0-17.33,8.67,8.67,0,1,1,0,17.33ZM26.83,48a2.92,2.92,0,0,0,3-2.82A3,3,0,0,0,27,42.2,2.92,2.92,0,0,0,24.08,45,2.86,2.86,0,0,0,26.83,48Z"/></g></g></svg>