<svg xmlns="http://www.w3.org/2000/svg" viewBox="0 0 109.93 109.98"><defs><style>.cls-1{fill:#fff;}</style></defs><g id="Capa_2" data-name="Capa 2"><g id="Capa_1-2" data-name="Capa 1"><path class="cls-1" d="M108.29,89.38c-.33.11-.31.45-.37.68a9.66,9.66,0,0,1-9.65,7q-23.34,0-46.67,0H46c-1.63,0-2.59-.78-2.61-2.06s1-2.11,2.65-2.11H97.9q6.21,0,6.22-6.18,0-28,0-56c0-.85-.12-1.15-1.09-1.15q-12.81.08-25.63,0c-.9,0-1,.25-1,1.08,0,6.08,0,12.16,0,18.23a2.4,2.4,0,0,1-1,2.26A2.23,2.23,0,0,1,72.86,51c-3.79-2.23-7.6-4.43-11.38-6.68a1.4,1.4,0,0,0-1.66,0q-5.7,3.33-11.43,6.6c-2.1,1.2-3.63.32-3.64-2.1,0-6.08,0-12.15,0-18.23,0-.84-.23-1-1-1q-12.87,0-25.73,0c-.82,0-1,.2-1,1,.05,3.75,0,7.5,0,11.25a2.09,2.09,0,0,1-1.71,2.36c-1.45.23-2.44-.7-2.45-2.35,0-3.3.12-6.6,0-9.89a13.93,13.93,0,0,1,2.92-9.29c4-5.42,7.79-11,11.63-16.49a10,10,0,0,1,8.74-4.52q24.48,0,49,0a10,10,0,0,1,8.72,4.54q6.18,8.88,12.45,17.7a16.18,16.18,0,0,1,2.05,4.45ZM19,25.4H43.71c1.51,0,1.51,0,1.91-1.52.16-.57.31-1.13.46-1.7q2.14-8.13,4.29-16.28A2.28,2.28,0,0,0,50,5.83c-4.83,0-9.65,0-14.48,0A5.3,5.3,0,0,0,31.94,7.2a11.8,11.8,0,0,0-1.68,2.11ZM70.81,5.84a2.54,2.54,0,0,0,.07.44c1.6,6.09,3.22,12.18,4.79,18.28.19.75.54.86,1.21.86,8.12,0,16.24,0,24.37,0,.25,0,.54.12.77-.11,0-.08,0-.16,0-.21Q96.06,16.65,90.13,8.24a5.11,5.11,0,0,0-4.19-2.38C80.91,5.81,75.88,5.84,70.81,5.84ZM49.57,25.34h22c-1.67-6.36-3.33-12.64-5-18.93-.16-.64-.53-.59-1-.59-3.37,0-6.73,0-10.09,0-.62,0-.89.13-1.06.79-.7,2.85-1.48,5.68-2.23,8.53C51.35,18.53,50.47,21.93,49.57,25.34ZM72.23,45.73c0-5.27,0-10.34,0-15.4,0-.84-.4-.76-.94-.76-7.15,0-14.29,0-21.44,0-.75,0-1,.15-1,.95,0,4.79,0,9.58,0,14.36,0,.25-.15.55.18.78l1-.54c3-1.75,6.07-3.48,9.08-5.26a2.65,2.65,0,0,1,3,0c2,1.19,3.94,2.32,5.91,3.47Z"/><path class="cls-1" d="M98.3,98.74h0q-17,0-33.94,0H46c-2.5,0-4.21-1.48-4.25-3.67a3.52,3.52,0,0,1,1-2.57A4.43,4.43,0,0,1,46,91.28H97.9c3.25,0,4.58-1.32,4.58-4.54V77.4q0-23.1,0-46.2c-8.26,0-16.37,0-24.47,0,0,3.73,0,7.28,0,10.84v6.83a4.06,4.06,0,0,1-1.76,3.64A3.83,3.83,0,0,1,72,52.37L68,50c-2.45-1.43-4.9-2.86-7.33-4.31-3.32,2-6.66,3.89-10,5.8l-1.43.82a3.78,3.78,0,0,1-6.1-3.52v-2.6c0-5,0-10,0-15-8.27,0-16.37,0-24.47,0,0,3.43,0,6.74,0,10.06v.56A3.76,3.76,0,0,1,12.56,45a4.11,4.11,0,0,1-1.34-3.19c0-1.15,0-2.29,0-3.44,0-2.13,0-4.26-.06-6.38a15.66,15.66,0,0,1,3.23-10.34c3.38-4.61,6.7-9.38,9.91-14L26,5.22A11.65,11.65,0,0,1,36.09,0h0q24.48,0,49,0h0A11.64,11.64,0,0,1,95.14,5.25q6.18,8.87,12.44,17.68a17.84,17.84,0,0,1,2.27,4.88l.08.52V90.54l-.48.18A11.32,11.32,0,0,1,98.3,98.74Zm-21.24-3.3q10.6,0,21.21,0h0a8.06,8.06,0,0,0,8-5.82,2.78,2.78,0,0,1,.32-.92V28.59a14.39,14.39,0,0,0-1.75-3.76Q98.63,16,92.45,7.12a8.35,8.35,0,0,0-7.37-3.83h0q-24.48,0-49,0h0A8.31,8.31,0,0,0,28.72,7.1L27,9.55C23.8,14.19,20.47,19,17.07,23.62a12.3,12.3,0,0,0-2.61,8.24c.11,2.18.09,4.38.07,6.57,0,1.13,0,2.26,0,3.39a1,1,0,0,0,.18.71.62.62,0,0,0,.36,0c.12,0,.32-.05.33-.75v-.56c0-3.56,0-7.11,0-10.67a2.76,2.76,0,0,1,.67-2,2.7,2.7,0,0,1,2-.68q12.87,0,25.72,0a2.61,2.61,0,0,1,2,.68,2.7,2.7,0,0,1,.68,2c0,5.2,0,10.4,0,15.61v2.6a1.65,1.65,0,0,0,.21,1,1.67,1.67,0,0,0,1-.32L49,48.63c3.33-1.91,6.67-3.82,10-5.77a3,3,0,0,1,3.35,0c2.42,1.44,4.86,2.87,7.3,4.29l4.07,2.39c.58.33.7.27.81.2s.25-.16.25-.87V42c0-3.8,0-7.59,0-11.39a2.74,2.74,0,0,1,.69-2.05,2.82,2.82,0,0,1,2-.69q12.78.06,25.6,0a3.2,3.2,0,0,1,2,.69,2.79,2.79,0,0,1,.7,2.1q0,23.36,0,46.71v9.34c0,5-2.8,7.82-7.87,7.82H46a1.53,1.53,0,0,0-1,.22c-.05.34,0,.65.92.65H77.06ZM73.87,48.6l-8.23-4.8c-1.45-.84-2.9-1.68-4.33-2.56a1.07,1.07,0,0,0-1.32,0c-2.18,1.29-4.38,2.56-6.58,3.82L49,47.58l-.85-.6a2.13,2.13,0,0,1-.87-2.15V40.08c0-3.19,0-6.37,0-9.56a2.58,2.58,0,0,1,.66-1.94,2.44,2.44,0,0,1,2-.67c6.63,0,13.26,0,19.9,0h1.53a2.54,2.54,0,0,1,1.94.63,2.37,2.37,0,0,1,.64,1.8c0,3.74,0,7.48,0,11.3ZM50.55,31.2c0,3,0,5.95,0,8.88v2.84l1.2-.69c2.19-1.26,4.38-2.52,6.55-3.8a4.25,4.25,0,0,1,4.7,0c1.41.86,2.84,1.69,4.27,2.52l3.29,1.91V41.66c0-3.53,0-7,0-10.45h-.82C63.36,31.22,57,31.23,50.55,31.2Zm51.09-4.13a1.92,1.92,0,0,1-.39,0H93.12l-16.24,0a2.52,2.52,0,0,1-2.8-2.1q-1.71-6.62-3.46-13.22L69.2,6.2,69,4.36l1.83-.16H75.1c3.62,0,7.24,0,10.86,0a6.68,6.68,0,0,1,5.51,3.06Q96.24,14,101,20.8l2.58,3.69.16,1.31-.53.63A2.09,2.09,0,0,1,101.64,27.07ZM72.9,7.48l.89,3.42c1.14,4.29,2.27,8.57,3.37,12.87H99l-.74-1.06L88.79,9.18a3.49,3.49,0,0,0-2.87-1.67c-3.6,0-7.21,0-10.82,0ZM43.71,27.05H15.79l13.33-19A11.54,11.54,0,0,1,30.84,6a7,7,0,0,1,4.71-1.79c3.86,0,7.73,0,11.59,0l3.51.1,1.58.42L52,6.32l-4.75,18C46.62,26.53,46,27.05,43.71,27.05Zm-21.6-3.29H44c0-.09,0-.19.08-.3l4.21-16H35.56a3.74,3.74,0,0,0-2.52,1,9.21,9.21,0,0,0-1.22,1.52ZM73.71,27H47.45l3.9-14.89c.53-2,1-3.92,1.54-5.89a2.45,2.45,0,0,1,2.62-2h0c2.69,0,5.37,0,8.05,0h2A2.2,2.2,0,0,1,68.21,6Q70.07,13.16,72,20.35Zm-22-3.29H69.45l-.66-2.52C67.58,16.59,66.38,12,65.2,7.46H56c-.47,1.86-1,3.67-1.44,5.49Z"/><path class="cls-1" d="M24.53,108.34a12.87,12.87,0,0,1-2.3-2.59C16.86,98.85,11.42,92,6.14,85A23.63,23.63,0,0,1,41.8,54.28c8.27,7.85,9.56,21.5,2.71,30.6-5.7,7.56-11.61,15-17.43,22.43a9.78,9.78,0,0,1-1.1,1Zm.71-5.5c.17-.19.27-.29.35-.39,4.91-6.29,9.8-12.59,14.73-18.87a19.5,19.5,0,0,0-12-31.64C14.42,49.55,2.49,63.09,6.56,76.62a26.59,26.59,0,0,0,5.05,8.75C16.16,91.14,20.66,97,25.24,102.84Z"/><path class="cls-1" d="M26.63,110H24l-.44-.32a11.84,11.84,0,0,1-2.23-2.41l-5.24-6.71C12.3,95.72,8.52,90.91,4.83,86c-7.56-10-6.08-25,3.28-33.4a25.17,25.17,0,0,1,34.81.45C51.8,61.5,53.1,76.2,45.82,85.87c-4.14,5.49-8.4,10.91-12.65,16.33l-4.8,6.12a6.68,6.68,0,0,1-1,1Zm-1.5-3.28h.24a4,4,0,0,0,.41-.4l4.81-6.13c4.24-5.4,8.48-10.8,12.6-16.28,6.31-8.37,5.17-21.12-2.53-28.42A22,22,0,0,0,7.45,84c3.68,4.87,7.45,9.67,11.21,14.47l5.28,6.76A12.36,12.36,0,0,0,25.13,106.7Zm.14-1.48-1.33-1.37-3.82-4.92c-3.28-4.21-6.53-8.39-9.8-12.54A28.42,28.42,0,0,1,5,77.09,20.83,20.83,0,0,1,9.49,57.2,21.09,21.09,0,0,1,46.34,72.78,21.29,21.29,0,0,1,41.62,84.6Q36.37,91.28,31.17,98l-4.59,5.84Zm-.11-51.91A17.62,17.62,0,0,0,12,59.38,17.56,17.56,0,0,0,8.13,76.14a25.38,25.38,0,0,0,4.77,8.21q4.92,6.24,9.81,12.56l2.55,3.27L28.57,96Q33.79,89.25,39,82.57a17.87,17.87,0,0,0-11-29A16.71,16.71,0,0,0,25.16,53.31Z"/><path class="cls-1" d="M79.64,75.42H65a4,4,0,0,1-1.34-.13,2.06,2.06,0,0,1,0-3.91,4.38,4.38,0,0,1,1.44-.13H94.1C96,71.25,97,72,97,73.33s-1,2.09-2.89,2.09Z"/><path class="cls-1" d="M64.74,77.06a4.84,4.84,0,0,1-1.66-.22,3.69,3.69,0,0,1,0-7,4.57,4.57,0,0,1,1.8-.23H94.11c3.34,0,4.54,1.91,4.54,3.71a3.42,3.42,0,0,1-1,2.52,4.78,4.78,0,0,1-3.54,1.22H64.74Zm0-4.17a2,2,0,0,0-.52,0c-.33.12-.33.19-.33.4s0,.29.33.41a2.23,2.23,0,0,0,.63,0H94.12a2,2,0,0,0,1.21-.25c0-.48-.39-.63-1.22-.63H64.69Z"/><path class="cls-1" d="M72.58,85.42c-2.64,0-5.28,0-7.91,0-1.56,0-2.47-.77-2.5-2s.91-2.11,2.53-2.12c5.34,0,10.69,0,16,0,1.74,0,2.73,1.11,2.36,2.6a2.09,2.09,0,0,1-2.28,1.55C78.06,85.43,75.32,85.42,72.58,85.42Z"/><path class="cls-1" d="M77.52,87.07H64.66c-2.44,0-4.1-1.48-4.13-3.66a3.59,3.59,0,0,1,1-2.62,4.26,4.26,0,0,1,3.17-1.17h16a4.12,4.12,0,0,1,3.35,1.47,3.66,3.66,0,0,1,.61,3.17,3.71,3.71,0,0,1-3.87,2.81Zm-4.94-3.3H80.8c.62,0,.67-.18.7-.3a.64.64,0,0,0,0-.36,1,1,0,0,0-.76-.21q-8,0-16,0a1.33,1.33,0,0,0-.83.18c0,.43,0,.69.8.69Z"/><path class="cls-1" d="M89.07,81.26a2.08,2.08,0,1,1-2.1,2A2.1,2.1,0,0,1,89.07,81.26Z"/><path class="cls-1" d="M89,87.05h-.1a3.71,3.71,0,0,1-2.42-6.41,3.85,3.85,0,0,1,2.61-1A3.7,3.7,0,0,1,91.53,86,3.62,3.62,0,0,1,89,87.05Zm0-4.14a.4.4,0,0,0-.25.11.44.44,0,0,0-.14.31.43.43,0,0,0,.39.43c.35-.2.4-.31.41-.42a.45.45,0,0,0-.4-.43h0Z"/><path class="cls-1" d="M14,71.18a11.24,11.24,0,1,1,22.48.06A11.24,11.24,0,0,1,14,71.18Zm11.24-7.05a7.05,7.05,0,0,0-7.07,7.07,7.07,7.07,0,1,0,7.07-7.07Z"/><path class="cls-1" d="M25.24,84.09a12.71,12.71,0,0,1-9-3.76,12.84,12.84,0,0,1-3.83-9.15h0a12.76,12.76,0,0,1,3.78-9.11,13.18,13.18,0,0,1,9.13-3.76,12.87,12.87,0,0,1,9.16,3.87,12.62,12.62,0,0,1,3.7,9.08A13,13,0,0,1,25.3,84.09Zm0-22.49a9.61,9.61,0,0,0,0,19.21h0a9.72,9.72,0,0,0,9.59-9.59,9.4,9.4,0,0,0-2.76-6.73,9.59,9.59,0,0,0-6.83-2.89Zm-.08,18.32a8.51,8.51,0,0,1-6-2.48,8.82,8.82,0,0,1-2.66-6.23,8.69,8.69,0,0,1,8.7-8.73h0a8.7,8.7,0,0,1,6.2,2.61A8.58,8.58,0,0,1,34,71.23a8.86,8.86,0,0,1-8.65,8.69Zm.08-14.15a5.43,5.43,0,0,0-5.42,5.43,5.43,5.43,0,1,0,10.85,0,5.32,5.32,0,0,0-1.56-3.8,5.41,5.41,0,0,0-3.87-1.63Z"/></g></g></svg>