<svg xmlns="http://www.w3.org/2000/svg" viewBox="0 0 111.78 127.13"><defs><style>.cls-1{fill:#fff;}</style></defs><g id="Capa_2" data-name="Capa 2"><g id="Capa_1-2" data-name="Capa 1"><rect class="cls-1" x="-8.94" y="58.64" width="132.96" height="9.86" transform="translate(-22.85 93.4) rotate(-68.21)"/><path class="cls-1" d="M16.44,80A16.44,16.44,0,1,1,32.88,63.57,16.46,16.46,0,0,1,16.44,80Zm0-23A6.58,6.58,0,1,0,23,63.57,6.59,6.59,0,0,0,16.44,57Z"/><path class="cls-1" d="M95.34,80a16.44,16.44,0,1,1,16.44-16.44A16.47,16.47,0,0,1,95.34,80Zm0-23a6.58,6.58,0,1,0,6.58,6.58A6.58,6.58,0,0,0,95.34,57Z"/></g></g></svg>