<svg xmlns="http://www.w3.org/2000/svg" viewBox="0 0 117.7 118.05"><defs><style>.cls-1{fill:#fff;}</style></defs><g id="Capa_2" data-name="Capa 2"><g id="Capa_1-2" data-name="Capa 1"><path class="cls-1" d="M67.11,1.64A10,10,0,0,1,68.89,3.1q9.31,9.38,18.66,18.73a3.87,3.87,0,0,1,1.24,3c0,6,0,12,0,17.93V44c.51-.09.69-.44.93-.69l11.69-11.6c1.6-1.59,2.46-1.58,4.06,0l9.43,9.43c1.57,1.58,1.57,2.4,0,4Q102.23,57.76,89.53,70.42a2.38,2.38,0,0,0-.77,1.86q0,20.44,0,40.89a9.33,9.33,0,0,1-.13,1.67A1.81,1.81,0,0,1,87,116.38a10.42,10.42,0,0,1-1.12,0H4.58c-2.31,0-2.92-.61-2.92-2.91q0-54.45,0-108.91A3.1,3.1,0,0,1,3,1.64ZM64.53,82.23l8.89-2.92-5.73-5.74c-.27-.27-.44-.37-.6.12-.89,2.79-1.8,5.58-2.71,8.38,0,.05-.14.12-.13.14S64.43,82.29,64.53,82.23Zm-4.65,5c-1.14-1.16-.85-2.29-.4-3.43.19-.49.27-1,.5-1.48.5-1,.08-1.12-.85-1.12q-19.79,0-39.57,0a7.2,7.2,0,0,1-1.23,0,2,2,0,0,1-.23-3.85,5,5,0,0,1,1.44-.12q20.58,0,41.14,0A1.13,1.13,0,0,0,62,76.29c.67-2.21,1.47-4.38,2.16-6.58a5.52,5.52,0,0,1,1.44-2.35c6.16-6.14,12.31-12.31,18.48-18.44a2.25,2.25,0,0,0,.72-1.76q0-10.14,0-20.28c0-.82-.17-1.06-1-1.05-5.45,0-10.91,0-16.36,0-2,0-2.58-.54-2.59-2.58,0-5.5,0-11,0-16.48,0-.93-.24-1.16-1.16-1.16q-28.47,0-56.95,0c-.86,0-1.09.21-1.09,1.09q0,52.28,0,104.55c0,.94.23,1.14,1.15,1.14q38.4,0,76.79,0c1,0,1.22-.21,1.22-1.21,0-11.58,0-23.16,0-34.74V75.29c-.41.38-.68.61-.93.86-1.58,1.58-3.17,3.16-4.73,4.78a5.43,5.43,0,0,1-2.25,1.39q-6.57,2.15-13.15,4.34c-.36.12-.81.13-1.11.57h1.12c2.62,0,5.23,0,7.85,0a1.92,1.92,0,0,1,2.09,1.87,2,2,0,0,1-1.9,2.08,6.56,6.56,0,0,1-.89,0H19.43a5.89,5.89,0,0,1-1.33-.13,1.95,1.95,0,0,1,.24-3.82,8.38,8.38,0,0,1,1.23,0H59.88ZM102.36,52c-.19-.21-.36-.39-.54-.57-2.21-2.22-4.46-4.41-6.64-6.67-.54-.57-.8-.42-1.27,0q-12,12-24,24c-.49.49-.58.76,0,1.3,2.26,2.18,4.47,4.4,6.67,6.65.47.48.72.51,1.21,0q12.06-12.12,24.14-24.2Zm1-16.56-.3.26c-1.77,1.76-3.52,3.54-5.31,5.29-.45.44-.09.62.15.87,2.27,2.27,4.56,4.53,6.8,6.82.44.44.67.36,1,0,1.65-1.69,3.31-3.35,5-5,.4-.39.46-.63,0-1.05-2.29-2.25-4.55-4.53-6.83-6.8C103.79,35.67,103.69,35.43,103.36,35.46ZM68.91,8.82a1.64,1.64,0,0,0-.09.35c0,4,0,8,0,12,0,.8.43.7.91.7H81.24c.2,0,.45.12.58-.14Z"/><path class="cls-1" d="M86.39,118.05H4.58C1.38,118,0,116.68,0,113.49V97.93Q0,51.26,0,4.58A4.72,4.72,0,0,1,2.11.25L2.51,0H67.58l.4.24a11.4,11.4,0,0,1,2.07,1.7q9.32,9.38,18.66,18.72a5.46,5.46,0,0,1,1.72,4.15c0,4.47,0,9,0,13.44v2l9.82-9.75c2.23-2.23,4.14-2.21,6.38,0L116,40c2.2,2.21,2.21,4.09,0,6.28l-2,1.95q-11.7,11.7-23.42,23.4a.76.76,0,0,0-.29.68q0,20.46,0,40.9a10,10,0,0,1-.16,2A3.46,3.46,0,0,1,87.17,118,6.79,6.79,0,0,1,86.39,118.05ZM3.44,114.66a5.27,5.27,0,0,0,1.14.09H85.83a6,6,0,0,0,.91,0l.28-.22a7.72,7.72,0,0,0,.11-1.36q0-20.43,0-40.88a4,4,0,0,1,1.26-3q11.73-11.69,23.42-23.39l1.95-1.95a3.5,3.5,0,0,0,.68-.84h0a7.3,7.3,0,0,0-.7-.8l-9.42-9.43a3.39,3.39,0,0,0-.91-.73,7,7,0,0,0-.83.71L90.86,44.44a3,3,0,0,1-1.78,1.14l-2,.36V38.25q0-6.74,0-13.46a2.24,2.24,0,0,0-.76-1.8Q77,13.66,67.72,4.25a8.31,8.31,0,0,0-1.11-1h-63a2,2,0,0,0-.28,1.29q0,46.68,0,93.35v15.56a2.67,2.67,0,0,0,.14,1.17Zm80.15-.61q-38.4,0-76.78,0a2.79,2.79,0,0,1-2.1-.7A2.81,2.81,0,0,1,4,111.26Q4,59,4,6.72a2.71,2.71,0,0,1,.71-2,2.72,2.72,0,0,1,2-.69Q35.21,4,63.68,4a2.85,2.85,0,0,1,2.11.72,2.79,2.79,0,0,1,.7,2.1c0,4.31,0,8.61,0,12.92v3.53a3.47,3.47,0,0,0,.08.92s.3,0,.86,0h3.41c4.32,0,8.62,0,12.94,0a2.75,2.75,0,0,1,2,.69,2.7,2.7,0,0,1,.69,2c0,6.75,0,13.51,0,20.26a3.87,3.87,0,0,1-1.2,2.93Q79.9,55.38,74.6,60.7l-7.84,7.83a3.91,3.91,0,0,0-1,1.68c-.31,1-.65,2-1,3-.4,1.2-.81,2.4-1.18,3.61a2.71,2.71,0,0,1-2.88,2.1h0q-18.69,0-37.39,0H19.54a4.59,4.59,0,0,0-1,0c-.33.1-.32.18-.31.36l.07,1.92.28-1.62a2.56,2.56,0,0,0,.62,0h3.93q18,0,36,0a2.63,2.63,0,0,1,2.41,1,2.54,2.54,0,0,1-.09,2.48,3.22,3.22,0,0,0-.18.55c-.08.27-.16.54-.26.8-.42,1.07-.34,1.29.05,1.68l.2.21a2.88,2.88,0,0,1,1.81-1.15c4.51-1.5,8.9-3,13.29-4.39a3.65,3.65,0,0,0,1.58-1c1.23-1.28,2.48-2.53,3.73-3.78l1-1c.17-.18.37-.36.6-.57l3.14-2.88V83.41q0,13.89,0,27.78a2.81,2.81,0,0,1-.71,2.14A2.85,2.85,0,0,1,83.59,114.05Zm-42.3-3.31q21,0,41.86,0c0-9.27,0-18.31,0-27.36V79.19c-1,1-1.9,1.91-2.83,2.88a7,7,0,0,1-2.93,1.81l-5.31,1.74A3.61,3.61,0,0,1,72,92.81a4.52,4.52,0,0,1-1,0H19.43a7.88,7.88,0,0,1-1.7-.17,3.59,3.59,0,0,1,.37-7,10,10,0,0,1,1.22-.06H57.44A5.9,5.9,0,0,1,58,83.2a2.79,2.79,0,0,0,.11-.35q-17.43,0-34.9,0h-3.6a8.1,8.1,0,0,1-1.5-.06,3.61,3.61,0,0,1-.43-7,5.53,5.53,0,0,1,1.73-.18h3.92q18.6,0,37.21,0c.38-1.21.77-2.34,1.15-3.47.32-1,.65-1.93,1-2.9a7.35,7.35,0,0,1,1.85-3l7.83-7.83L82.92,47.75a.63.63,0,0,0,.24-.59q0-9.84,0-19.68c-4.2,0-8.27,0-12.35,0h-3.4c-3,0-4.23-1.26-4.23-4.22V19.74c0-4.15,0-8.3,0-12.46-18.76,0-37.33,0-55.9,0q0,51.9,0,103.48ZM70.88,89.58a6.14,6.14,0,0,0,.66,0c.5-.07.49-.2.48-.38s0-.29-.46-.3c-1.78,0-3.55,0-5.33,0H19.57a8.81,8.81,0,0,0-1,0l-.31.3c0,.22,0,.25.21.29a4.29,4.29,0,0,0,1,.09Zm-6-5.59-1.58-.27L62.2,81.9l.74-.73.51-1.57c.7-2.13,1.4-4.27,2.08-6.41a2,2,0,0,1,1.4-1.44,2,2,0,0,1,1.92.65L76.47,80ZM68,76.21l-1.14,3.52,3.5-1.15Zm9.11,2.56h0a2.55,2.55,0,0,1-1.78-.88c-2.18-2.23-4.38-4.44-6.63-6.61a2.31,2.31,0,0,1,0-3.64q12-12,24-24a2.61,2.61,0,0,1,1.82-.89h0a2.53,2.53,0,0,1,1.78.87c1.54,1.6,3.13,3.17,4.71,4.75l3.41,3.5L103,53.71l-3.46,3.46Q89.22,67.54,78.89,77.92A2.52,2.52,0,0,1,77.12,78.77Zm-5.57-9.31c1.9,1.85,3.75,3.7,5.57,5.57,6.74-6.78,13.43-13.48,20.12-20.18L100.07,52l-1.31-1.3c-1.4-1.4-2.81-2.8-4.19-4.22C86.83,54.24,79.19,61.86,71.55,69.46Zm33.67-18.82a2.4,2.4,0,0,1-1.69-.79c-1.61-1.64-3.24-3.27-4.87-4.89L96.74,43a2.19,2.19,0,0,1-.85-1.62,2.13,2.13,0,0,1,.71-1.59c1.3-1.27,2.59-2.56,3.87-3.85l2.2-2.08.58-.08a2.16,2.16,0,0,1,1.87.85l2.46,2.46c1.44,1.45,2.88,2.89,4.34,4.32a2.37,2.37,0,0,1,.79,1.68,2.42,2.42,0,0,1-.82,1.72c-1.68,1.63-3.33,3.29-5,5a2.4,2.4,0,0,1-1.71.83Zm-5.5-9.26L101,42.63c1.41,1.41,2.83,2.82,4.23,4.24,1.25-1.28,2.49-2.52,3.73-3.74l-3.68-3.67-1.8-1.8-.66.65Zm-.86-.86Zm-17.34-17-.34,0H69.7a2.48,2.48,0,0,1-1.91-.6,2.33,2.33,0,0,1-.64-1.75c0-2.75,0-5.5,0-8.25l.14-4.45L68.18,6l1.9,1.68L83.84,21.38l-.56,1.07A1.91,1.91,0,0,1,81.52,23.5Zm.07-3.29ZM70.46,12.68v.2c0,2.44,0,4.88,0,7.31H78Z"/><path class="cls-1" d="M64.53,82.23c-.1.06-.2.11-.28,0s.08-.09.13-.14Z"/><polygon class="cls-1" points="64.84 83.99 63.26 83.72 62.2 81.9 64.32 79.85 65.82 81.22 66.91 82.61 64.84 83.99"/><path class="cls-1" d="M45,101.17H19.13c-1.48,0-2.27-.51-2.47-1.57a1.91,1.91,0,0,1,1.42-2.31,5,5,0,0,1,1.44-.13H70.75a5,5,0,0,1,1.44.13,2,2,0,0,1-.26,3.85,7,7,0,0,1-1.12,0Z"/><path class="cls-1" d="M71.29,102.82H19.13c-3.08,0-3.88-1.82-4.09-2.9a3.55,3.55,0,0,1,2.57-4.19,7,7,0,0,1,1.81-.2H70.75a6.13,6.13,0,0,1,1.92.2,3.6,3.6,0,0,1-.48,7A5.37,5.37,0,0,1,71.29,102.82Zm-51.91-4a3,3,0,0,0-.82.06c-.34.1-.33.2-.29.43s.21.22.86.22H70.81a4.65,4.65,0,0,0,.84,0l.36-.3c0-.19,0-.25-.29-.35a3,3,0,0,0-.83,0H19.38Z"/><path class="cls-1" d="M32.69,67.27H45.92a8.18,8.18,0,0,1,1.11,0,1.93,1.93,0,0,1,1.7,1.91,1.83,1.83,0,0,1-1.54,1.92,5.16,5.16,0,0,1-1.11.11H19.3a5.88,5.88,0,0,1-1.11-.1,1.86,1.86,0,0,1-1.58-2,1.82,1.82,0,0,1,1.74-1.84c1.31-.08,2.62,0,3.92,0Z"/><path class="cls-1" d="M32.71,72.9H19.3a7,7,0,0,1-1.44-.13,3.58,3.58,0,0,1,.39-7.08c1.06-.07,2.12-.06,3.16-.06H45.92a9,9,0,0,1,1.34.06,3.53,3.53,0,0,1,3.11,3.58,3.47,3.47,0,0,1-2.83,3.48,6.76,6.76,0,0,1-1.46.14Zm-12.2-4c-.68,0-1.37,0-2.05,0-.09,0-.2,0-.21.26s0,.27.26.32a4.21,4.21,0,0,0,.79.06q13.4,0,26.78,0a3.55,3.55,0,0,0,.77-.07l.23-.35c0-.1-.11-.22-.27-.24s-.53,0-.78,0H20.51Z"/></g></g></svg>