<svg xmlns="http://www.w3.org/2000/svg" viewBox="0 0 121.07 159.26"><defs><style>.cls-1,.cls-2{fill:#fff;}.cls-2{stroke:#fff;stroke-miterlimit:10;stroke-width:3px;}</style></defs><g id="Capa_2" data-name="Capa 2"><g id="Capa_1-2" data-name="Capa 1"><path class="cls-1" d="M41,88.17c0,2.92,0,5.84,0,8.76,0,.73-.14.95-.93,1a6.91,6.91,0,0,1-6.39-2.72c-1.16-1.5-2.37-2.95-3.57-4.41-.34-.41-.69-.82-1.06-1.2a1.09,1.09,0,0,0-1-.39c-.49.13-.28.62-.28,1,0,2.26,0,4.53,0,6.79,0,.76-.21,1-1,1-1.23-.07-2.47,0-3.7,0-.61,0-.88-.13-.88-.81q0-9,0-17.9c0-.66.23-.78.85-.84a7,7,0,0,1,6.61,2.76C30.81,82.55,32,84,33.09,85.36a13.49,13.49,0,0,0,1.07,1.2c.32.3.72.68,1.18.45s.17-.67.17-1c0-2.27,0-4.53,0-6.79,0-.64.15-.87.82-.85,1.27,0,2.55.06,3.82,0,.75,0,.87.27.86.92C41,82.24,41,85.21,41,88.17Z"/><path class="cls-1" d="M19.93,41.82h9.92c-.2,0-.71-.26-.13,0,.24.11,1.19.43.47.12,2.87,1.24,5.25,3.53,7.42,5.72,4.22,4.27,7.75,9.13,11.48,13.82,7,8.84,14.32,17.48,21.67,26.06q3.45,4,6.93,8c.4.46.79.92,1.2,1.37-1-1.19.3.5.6.83,5.82,6.74,16.24,6.45,24.33,6.45,3.6,0,3.61-5.6,0-5.6-6.89,0-15.49.37-20.32-4.74-.51-.54.31.42-.1-.13-.18-.25-.35-.5-.54-.74-.36-.46-.76-.88-1.14-1.31Q78.38,87.87,75.06,84c-7.33-8.56-14.59-17.17-21.61-26-3.81-4.77-7.4-9.74-11.68-14.11a31.89,31.89,0,0,0-8.3-6.59c-4.08-2-9.15-1.11-13.54-1.11-3.6,0-3.6,5.6,0,5.6Z"/><path class="cls-1" d="M102.74,109.22h-8a41.76,41.76,0,0,0-7.16.12c-3.14.55-6.08,2.53-8.55,4.44-4.89,3.77-9.08,8.53-13.43,12.88l-8.72,8.72c-2.55,2.55,1.41,6.51,4,4,6.26-6.26,12.36-12.74,18.82-18.79a26.73,26.73,0,0,1,9.06-5.75c.59-.21,0,0-.28,0a8.22,8.22,0,0,0,.86,0h13.48c3.6,0,3.61-5.6,0-5.6Z"/><path class="cls-2" d="M117.24,108.34a181.8,181.8,0,0,0,2.33-28.72c0-6.22-.34-12.24-.9-17.91-.51-5.14-1.23-10-2.13-14.5h0l-.06-.25c-.09-.47-.18-1-.28-1.43A2.05,2.05,0,0,0,116,45l-2.52-9.75c-.38-1.13-.79-2.29-1.25-3.47s-.87-2.16-1.35-3.18c-1.39-3.05-.92-3.94.45-6.45a22.75,22.75,0,0,0,3.11-10,10.32,10.32,0,0,0-2.78-7.94A10.47,10.47,0,0,0,103,1.56,24.59,24.59,0,0,0,92.57,5.35,11.37,11.37,0,0,1,89.2,7a8.13,8.13,0,0,1-3.81-.36A99.17,99.17,0,0,0,60.53,3.66,98.76,98.76,0,0,0,35.67,6.6a8.09,8.09,0,0,1-3.8.36,11.52,11.52,0,0,1-3.38-1.61A24.5,24.5,0,0,0,18,1.56,10.45,10.45,0,0,0,9.42,4.28a10.29,10.29,0,0,0-2.78,7.94,22.84,22.84,0,0,0,3.11,10c1.36,2.51,1.84,3.4.44,6.45A90.62,90.62,0,0,0,3.83,50.92,180.62,180.62,0,0,0,1.5,79.64c0,6.15.34,12.1.88,17.71A147.9,147.9,0,0,0,4.79,113.4l2.66,9.88a2.45,2.45,0,0,0,0,.38c.08.24.17.46.25.7l.06.21h0c.31.92.62,1.83,1,2.73q.68,1.72,1.41,3.33c1.4,3.05.92,3.93-.44,6.44a22.79,22.79,0,0,0-3.11,10A10.24,10.24,0,0,0,9.42,155,10.45,10.45,0,0,0,18,157.7a24.52,24.52,0,0,0,10.45-3.78,11.66,11.66,0,0,1,3.38-1.63,8.22,8.22,0,0,1,3.8.36,83.84,83.84,0,0,0,11.77,2.2,114.69,114.69,0,0,0,26.19,0,83.41,83.41,0,0,0,11.76-2.2,8.26,8.26,0,0,1,3.81-.36,11.51,11.51,0,0,1,3.37,1.63A24.57,24.57,0,0,0,103,157.7a10.47,10.47,0,0,0,8.63-2.73,10.28,10.28,0,0,0,2.78-7.92,22.88,22.88,0,0,0-3.11-10c-1.37-2.51-1.84-3.39-.45-6.44A90.85,90.85,0,0,0,117.24,108.34Zm-9.93,30.91a18.8,18.8,0,0,1,2.56,7.95,5.93,5.93,0,0,1-1.46,4.54,6.18,6.18,0,0,1-5,1.41A20.19,20.19,0,0,1,95,150a15,15,0,0,0-4.82-2.19,12.13,12.13,0,0,0-5.92.42,81,81,0,0,1-11.1,2.07,111.71,111.71,0,0,1-25.15,0,80.38,80.38,0,0,1-11.1-2.07,12.17,12.17,0,0,0-5.93-.42A15,15,0,0,0,26.11,150a20.19,20.19,0,0,1-8.45,3.14,6.18,6.18,0,0,1-5-1.41,6,6,0,0,1-1.45-4.54,18.55,18.55,0,0,1,2.55-7.95c2.17-4,2.94-5.41.59-10.52-.44-1-.88-2-1.3-3.07-.27-.69-.53-1.48-.79-2.24L8.78,110c-.78-4.1-1.41-8.47-1.86-13.07-.53-5.5-.83-11.3-.86-17.29a174.28,174.28,0,0,1,2.28-28,86.53,86.53,0,0,1,6-21.14C16.69,25.41,15.92,24,13.75,20a18.47,18.47,0,0,1-2.55-7.95,5.94,5.94,0,0,1,1.45-4.53,6.12,6.12,0,0,1,5-1.4,20,20,0,0,1,8.45,3.12,14.86,14.86,0,0,0,4.82,2.2A12.42,12.42,0,0,0,36.86,11,93.92,93.92,0,0,1,60.53,8.23,94,94,0,0,1,84.21,11a12.38,12.38,0,0,0,5.92.42A14.86,14.86,0,0,0,95,9.24a20,20,0,0,1,8.45-3.12,6.11,6.11,0,0,1,5,1.4,5.9,5.9,0,0,1,1.46,4.53,18.62,18.62,0,0,1-2.56,8c-2.17,4-2.94,5.41-.58,10.52.42.93.84,1.91,1.23,2.94s.77,2,1.16,3.25l2.74,10.36a141.79,141.79,0,0,1,2.26,15.09c.55,5.55.85,11.42.88,17.47a174.21,174.21,0,0,1-2.27,28,86.4,86.4,0,0,1-6,21.14C104.37,133.84,105.14,135.25,107.31,139.25Z"/></g></g></svg>