<svg xmlns="http://www.w3.org/2000/svg" viewBox="0 0 102.48 102.47"><defs><style>.cls-1{fill:#fff;}</style></defs><g id="Capa_2" data-name="Capa 2"><g id="Capa_1-2" data-name="Capa 1"><path class="cls-1" d="M102.28,72.46c-2.43,0-4.86,0-7.3.06-.64,0-.57-.35-.57-.76v-11a1.91,1.91,0,0,0-.91.7q-11,11.06-22,22.12c-.61.62-.9.63-1.52,0-2.8-2.85-5.68-5.64-8.51-8.46-.38-.38-.59-.55-1.07,0Q47.25,88.73,34.08,102.3a.51.51,0,0,0-.07.17h-.2c-1.57-1.76-3.35-3.32-5.05-5-.51-.49-.49-.73,0-1.22Q44.49,80.07,60.19,63.81c.46-.48.68-.44,1.13,0,2.92,2.92,5.87,5.81,8.8,8.73.4.4.63.49,1.09,0q8.58-8.67,17.21-17.31c.11-.11.21-.23.42-.46-.48,0-.79-.06-1.11-.06-3.47,0-6.93,0-10.4,0-.78,0-.94-.22-.92-1,0-2.1,0-4.2,0-6.3,0-.5,0-.77.66-.77q12.47,0,24.92,0a1.6,1.6,0,0,1,.29,0Z"/><path class="cls-1" d="M102.28,72.46V46.82h.19V72.45Z"/><path class="cls-1" d="M102.48,102.27h-.22c0-4.46,0-8.91,0-13.37q0-4.19-.05-8.37l.24-.06Z"/><path class="cls-1" d="M37.53,75.75c-1.76,1.81-3.58,3.53-5.19,5.43a2.41,2.41,0,0,1-3.14.74c-14.82-5.28-24.46-15.41-28-30.74C-1.95,37.74,1.21,25.52,10,14.9A39.79,39.79,0,0,1,33.51.9c14.2-2.76,26.77.82,37.39,10.68A40.75,40.75,0,0,1,83.38,34.74c.2,1.11.29,2.25.46,3.37.08.53-.09.68-.63.68-2.24,0-4.47,0-6.71,0-1,0-.71-.72-.77-1.17A32,32,0,0,0,69.44,22C61,11,49.76,6.31,36,8.6A33.71,33.71,0,0,0,8.42,36.92,34.07,34.07,0,0,0,36.11,75.41,3.35,3.35,0,0,1,37.53,75.75Z"/><path class="cls-1" d="M42,67.72c-1.1,0-2.2,0-3.3,0-.56,0-.74-.15-.73-.72,0-1.6,0-3.2,0-4.8a.8.8,0,0,0-.57-.89A12.41,12.41,0,0,1,29.87,51c-.1-.77.06-1,.9-1q3,.1,6,0c.79,0,1.06.2,1.22,1a4.17,4.17,0,0,0,3.95,3.35A4.3,4.3,0,0,0,46.09,51a2.7,2.7,0,0,0-.81-2.9,18.31,18.31,0,0,0-3.84-2.49,36.54,36.54,0,0,1-6.37-3.91c-6.49-5.5-5.41-15,2.17-18.83a.89.89,0,0,0,.59-1c0-1.7,0-3.4,0-5.1,0-.55,0-.83.73-.81,2.2,0,4.41,0,6.61,0,.6,0,.7.21.69.74,0,1.6,0,3.2,0,4.8a1.14,1.14,0,0,0,.78,1.27A10.66,10.66,0,0,1,53,31.46c.11.76.08,1.21-.95,1.16-2.1-.11-4.2,0-6.31,0-.45,0-.65-.08-.78-.59a2.76,2.76,0,0,0-2.46-2.17,3.08,3.08,0,0,0-3.24,1.52,3,3,0,0,0,.2,3.38,6.12,6.12,0,0,0,2.28,1.91c1.68,1,3.38,1.85,5.07,2.79a18,18,0,0,1,4.6,3.49,11.18,11.18,0,0,1-.13,15,12,12,0,0,1-4.63,3.39.84.84,0,0,0-.61,1c0,1.46,0,2.93,0,4.4,0,.79-.11,1.13-1,1S43,67.72,42,67.72Z"/><path class="cls-1" d="M102.24,80.52q0,4.19.05,8.37c0,4.46,0,8.91,0,13.37-2.4,0-4.8,0-7.2,0-.53,0-.66-.15-.66-.67q0-10.2,0-20.41c0-.58.17-.74.73-.73C97.5,80.52,99.87,80.51,102.24,80.52Z"/><path class="cls-1" d="M86.42,79.92V87.8c0,4.53,0,9.07,0,13.6,0,.67-.12.92-.86.9-2.13,0-4.26,0-6.4,0-.62,0-.77-.17-.76-.78,0-4.3,0-8.6,0-12.89a1.14,1.14,0,0,1,.24-.93Z"/><path class="cls-1" d="M62.77,87.38c2.47,2.56,4.93,5.12,7.41,7.67a1,1,0,0,1,.25.82c0,1.91,0,3.81,0,5.71,0,.57-.17.72-.73.71-2.2,0-4.4,0-6.6,0-.48,0-.7-.06-.7-.63,0-4.67,0-9.34,0-14Z"/><path class="cls-1" d="M54.43,93.42c0,2.53,0,5.48,0,8.44,0,.37-.17.43-.48.43H47c-.19,0-.48.08-.5-.18,0-.47-.16-1,.28-1.4.91-.88,1.74-1.84,2.66-2.7C51.1,96.4,52.84,94.86,54.43,93.42Z"/></g></g></svg>