<svg xmlns="http://www.w3.org/2000/svg" viewBox="0 0 105.17 105.22"><defs><style>.cls-1{fill:#fff;}</style></defs><g id="Capa_2" data-name="Capa 2"><g id="Capa_1-2" data-name="Capa 1"><path class="cls-1" d="M52.73,105.21H2.56c-2.06,0-2.54-.48-2.54-2.56Q0,52.37,0,2.1C0,1.18.16.88,1.15.91,3.49,1,3.54.94,3.47,3.27c0,.93.18,1.21,1.16,1.17C7,4.36,6.92,4.42,7,6.75,7,7.69,6.8,8,5.83,7.92c-2.33-.08-2.33,0-2.33,2.31,0,1.34,0,2.68,0,4,0,.48.13.64.61.61.75,0,1.52,0,2.27,0,.48,0,.59.15.62.61.15,2.83.16,2.86-2.68,2.86-.69,0-.85.18-.83.84,0,1.81,0,3.62,0,5.43,0,.58.17.75.73.71.72,0,1.45,0,2.17,0,.5,0,.58.16.6.62.15,2.81.16,2.83-2.68,2.85-.56,0-.84.06-.82.74,0,1.84,0,3.69,0,5.54,0,.6.2.73.74.7.69,0,1.38,0,2.06,0s.69.21.7.74c.06,2.73.08,2.75-2.58,2.74-.65,0-1,.08-.92.85.06,1.77.06,3.55,0,5.32,0,.72.23.86.86.8s1.09.06,1.62,0c.91-.13,1,.28,1,1.07,0,2.42,0,2.46-2.38,2.4-.86,0-1.19.13-1.14,1.08.09,1.7,0,3.41,0,5.11,0,.58.11.89.76.78a2.06,2.06,0,0,1,.43,0c.74.07,2-.32,2.14.15a8.61,8.61,0,0,1,.16,3c0,.3-.17.35-.42.35H6c-.82,0-1.9-.36-2.38.18s-.13,1.51-.13,2.3c0,1.27,0,2.53,0,3.8,0,.5.1.76.64.67a1.22,1.22,0,0,1,.33,0c.82.06,2.06-.36,2.35.17C7.23,67.9,7,69,7,70c0,.31-.09.47-.42.44a3.23,3.23,0,0,0-.44,0c-.85.07-2-.38-2.47.19s-.13,1.66-.14,2.52c0,1.19,0,2.39,0,3.58,0,.51.12.75.65.67a1.22,1.22,0,0,1,.33,0c.81.06,2.06-.37,2.35.17.41.76.13,1.89.15,2.86,0,.32-.1.47-.43.44H6.1c-.85.07-2-.38-2.47.19s-.13,1.59-.13,2.42c0,1.23,0,2.46,0,3.69,0,.52.15.73.67.65a1.82,1.82,0,0,1,.33,0c.81.07,2.05-.37,2.35.18.41.76.12,1.89.15,2.87,0,.32-.13.46-.45.43a1.71,1.71,0,0,0-.32,0c-.87,0-2.06-.31-2.51.13s-.18,1.77-.19,2.7c0,2.28,0,4.56,0,6.84,0,.63.18.77.79.77,3,0,5.93,0,8.9,0,.63,0,.85-.19.75-.79v-.11c0-2.87,0-2.86,3-2.61.43,0,.58.17.53.57a1.61,1.61,0,0,0,0,.22c0,.86-.29,2,.14,2.51s1.7.16,2.59.18c1.16,0,2.32,0,3.47,0,.64,0,.84-.21.75-.8a.34.34,0,0,1,0-.1c0-2.89,0-2.87,2.95-2.61.44,0,.57.19.52.58V99c0,.86-.28,2,.15,2.51s1.7.15,2.59.17c1.09,0,2.18,0,3.26,0,.72,0,1-.1,1-.91,0-2.89,0-2.87,2.94-2.6.45,0,.53.2.52.59,0,.72,0,1.45,0,2.17,0,.53.08.76.69.75,1.85,0,3.69,0,5.54,0,.53,0,.84-.08.73-.69a1.62,1.62,0,0,1,0-.22c0-2.89,0-2.87,3-2.59.46.05.52.22.51.6,0,.72,0,1.45,0,2.17,0,.54.11.75.71.74,1.84,0,3.69,0,5.53,0,.55,0,.78-.1.74-.7s0-1.45,0-2.17c0-.46.11-.6.59-.63,2.85-.16,2.87-.18,2.87,2.67,0,.66.14.86.83.84,1.81,0,3.62,0,5.43,0,.56,0,.81-.14.71-.72v-.11c0-2.84,0-2.83,2.88-2.68.47,0,.63.14.61.62,0,.75,0,1.52,0,2.27,0,.48.13.62.61.61,1.91,0,3.83,0,5.75,0,.48,0,.63-.13.61-.61,0-.76,0-1.52,0-2.28,0-.48.15-.58.61-.61,2.82-.14,2.85-.16,2.85,2.69,0,.68.19.84.85.82,1.77,0,3.54,0,5.32,0,.69,0,.87-.19.82-.84s0-1.38,0-2.07c0-.49.17-.61.62-.59.91,0,2.06-.31,2.65.12s.18,1.68.2,2.56c0,.56.07.84.74.82,1.85,0,3.69,0,5.54,0,.6,0,.73-.21.7-.74s0-1.31,0-2,.22-.87.86-.8c.85.09,2-.36,2.48.18s.2,1.58.13,2.4.25.93,1,.92c2.54,0,2.49,0,2.55,2.45,0,.92-.3,1-1.08,1Q78,105.19,52.73,105.21Z"/><path class="cls-1" d="M88.21,19.83c-.38-.23-.49.15-.65.31-2,1.93-3.89,3.89-5.85,5.82a1,1,0,0,0-.3,1.21,5.18,5.18,0,0,1-6.5,6.52A1,1,0,0,0,73.7,34q-8.16,8.2-16.35,16.36a.92.92,0,0,0-.28,1.12A5.18,5.18,0,0,1,50.53,58a.91.91,0,0,0-1.12.27c-1.62,1.65-3.25,3.29-4.91,4.91-.4.38-.39.62-.12,1.08a5.15,5.15,0,0,1-7.14,7.08c-.5-.29-.73-.17-1.08.18q-6.78,6.81-13.59,13.59a.93.93,0,0,0-.24,1.13,4.9,4.9,0,0,1-1.28,5.28,4.85,4.85,0,0,1-5.19,1.25,1.06,1.06,0,0,0-1.3.35c-.8.84-1.64,1.63-2.44,2.47-.32.34-.57.4-.86,0l-.07-.08c-.63-.65-1.66-1.24-1.75-2s1.08-1.23,1.65-1.88a2.91,2.91,0,0,1,.31-.3,2.34,2.34,0,0,0,.92-2.73c-.88-3.5,2.72-6.8,6.23-5.83a1.77,1.77,0,0,0,2-.59q6.76-6.84,13.58-13.6a1.81,1.81,0,0,0,.65-1.49,5.13,5.13,0,0,1,5.41-5.34,1.62,1.62,0,0,0,1.32-.54c1.75-1.78,3.51-3.54,5.29-5.3a1.14,1.14,0,0,0,.38-1.38,4.82,4.82,0,0,1,1.29-5.18,5,5,0,0,1,5.2-1.28c.38.11.69.3,1.07-.08,1.74-1.77,3.52-3.52,5.4-5.38a5.64,5.64,0,0,1-3.94-2.83,5,5,0,0,1-.54-3.15,5.24,5.24,0,0,1,4.57-4.42c2.63-.31,4.56,1.12,5.84,4.38,1.83-1.82,3.64-3.63,5.45-5.42.28-.27.1-.51,0-.79a5.2,5.2,0,0,1,6.59-6.59c.33.1.57.21.87-.09,2.33-2.35,4.68-4.69,7.07-7.09C82,16.32,79.81,14.31,80,11.09a5.23,5.23,0,0,1,5.21-4.93c3.12,0,5.08,2.26,5.25,6.28,1.3-1.34,2.46-2.55,3.64-3.74.3-.29.2-.54.09-.87a4.94,4.94,0,0,1,1.28-5.38,4.85,4.85,0,0,1,5.3-1.2c.62.22.86-.08,1.18-.4,1.17-1.14,1.17-1.14,2.32,0s1.26,1.28,0,2.54A.92.92,0,0,0,104,4.54a4.87,4.87,0,0,1-1.26,5.28,4.89,4.89,0,0,1-5.29,1.26.85.85,0,0,0-1,.19C93.73,14,91,16.66,88.35,19.35c-.12.12-.41.23-.16.49ZM99.11,7.88a1.73,1.73,0,1,0-1.77-1.65A1.74,1.74,0,0,0,99.11,7.88ZM86.89,11.41a1.73,1.73,0,1,0-1.74,1.69A1.74,1.74,0,0,0,86.89,11.41ZM78.21,28.74a1.73,1.73,0,1,0-1.7,1.74A1.75,1.75,0,0,0,78.21,28.74Zm-19.1,8.7a1.74,1.74,0,0,0,1.7,1.72,1.73,1.73,0,1,0-1.7-1.72Zm-7,13.9A1.73,1.73,0,1,0,53.88,53,1.75,1.75,0,0,0,52.11,51.34ZM41.72,66.94a1.73,1.73,0,1,0-1.67,1.77A1.75,1.75,0,0,0,41.72,66.94ZM19.13,87.83a1.73,1.73,0,1,0-1.71,1.73A1.75,1.75,0,0,0,19.13,87.83Z"/><path class="cls-1" d="M67.74,23.53A5.21,5.21,0,1,1,73,18.42,5.23,5.23,0,0,1,67.74,23.53Zm1.78-5.23a1.73,1.73,0,1,0-1.69,1.75A1.74,1.74,0,0,0,69.52,18.3Z"/><path class="cls-1" d="M88.19,19.84c.4.12.52-.27.74-.44a5.18,5.18,0,1,1-1.14,1.2c.16-.24.54-.38.42-.77Zm3.9,2a1.73,1.73,0,1,0,1.75,1.68A1.74,1.74,0,0,0,92.09,21.8Z"/><path class="cls-1" d="M40,35.7a5.21,5.21,0,1,1-5.25,5.12A5.23,5.23,0,0,1,40,35.7Zm0,3.48a1.73,1.73,0,0,0-.12,3.46A1.73,1.73,0,1,0,40,39.18Z"/><path class="cls-1" d="M71.26,42.65a5.21,5.21,0,1,1-5.21,5.16A5.22,5.22,0,0,1,71.26,42.65ZM73,47.91a1.73,1.73,0,1,0-1.75,1.68A1.75,1.75,0,0,0,73,47.91Z"/><path class="cls-1" d="M24.39,49.6a5.21,5.21,0,1,1-5.25,5.12A5.23,5.23,0,0,1,24.39,49.6Zm1.69,5.3a1.73,1.73,0,0,0-3.46-.23,1.73,1.73,0,1,0,3.46.23Z"/><path class="cls-1" d="M62.53,65.24a5.21,5.21,0,1,1-5.17,5.2A5.23,5.23,0,0,1,62.53,65.24Zm1.77,5.24a1.73,1.73,0,1,0-1.72,1.7A1.74,1.74,0,0,0,64.3,70.48Z"/><path class="cls-1" d="M24.35,73.91a5.22,5.22,0,1,1-5.18-5.19A5.23,5.23,0,0,1,24.35,73.91Zm-3.49,0a1.73,1.73,0,1,0-1.71,1.72A1.74,1.74,0,0,0,20.86,73.94Z"/><path class="cls-1" d="M99.11,7.88a1.73,1.73,0,1,1,0-3.46,1.73,1.73,0,0,1,0,3.46Z"/><path class="cls-1" d="M86.89,11.41a1.73,1.73,0,1,1-1.66-1.77A1.74,1.74,0,0,1,86.89,11.41Z"/><path class="cls-1" d="M78.21,28.74a1.73,1.73,0,1,1-3.46,0,1.73,1.73,0,0,1,3.46,0Z"/><path class="cls-1" d="M59.11,37.44a1.73,1.73,0,1,1,1.7,1.72A1.74,1.74,0,0,1,59.11,37.44Z"/><path class="cls-1" d="M52.11,51.34a1.73,1.73,0,1,1-1.69,1.75A1.75,1.75,0,0,1,52.11,51.34Z"/><path class="cls-1" d="M41.72,66.94a1.73,1.73,0,0,1-3.46.13,1.73,1.73,0,1,1,3.46-.13Z"/><path class="cls-1" d="M19.13,87.83a1.73,1.73,0,1,1-1.7-1.73A1.75,1.75,0,0,1,19.13,87.83Z"/><path class="cls-1" d="M69.52,18.3a1.73,1.73,0,0,1-3.46.09,1.73,1.73,0,1,1,3.46-.09Z"/><path class="cls-1" d="M92.09,21.8a1.75,1.75,0,0,1,1.75,1.68,1.73,1.73,0,1,1-1.75-1.68Z"/><path class="cls-1" d="M40,39.18a1.73,1.73,0,1,1-1.76,1.67A1.74,1.74,0,0,1,40,39.18Z"/><path class="cls-1" d="M73,47.91a1.73,1.73,0,1,1-1.65-1.78A1.74,1.74,0,0,1,73,47.91Z"/><path class="cls-1" d="M26.08,54.9a1.73,1.73,0,1,1-1.62-1.82A1.77,1.77,0,0,1,26.08,54.9Z"/><path class="cls-1" d="M64.3,70.48a1.73,1.73,0,1,1-1.67-1.76A1.74,1.74,0,0,1,64.3,70.48Z"/><path class="cls-1" d="M20.86,73.94a1.73,1.73,0,1,1-1.69-1.74A1.74,1.74,0,0,1,20.86,73.94Z"/></g></g></svg>