<svg xmlns="http://www.w3.org/2000/svg" viewBox="0 0 132.36 154.52"><defs><style>.cls-1{fill:#fff;}</style></defs><g id="Capa_2" data-name="Capa 2"><g id="Capa_1-2" data-name="Capa 1"><path class="cls-1" d="M51.59,107a14,14,0,0,1-14-14.69,3.53,3.53,0,0,1,0-.38,8,8,0,0,0-3.5-6.68l-.56-.35a7.6,7.6,0,0,0-4.42-1.08c-.43,0-.6,0-.77,0a13.83,13.83,0,0,1-13-9A13.63,13.63,0,0,1,19,59.48a8.23,8.23,0,0,0,2.67-6,8.07,8.07,0,0,0-2.68-6,13.77,13.77,0,0,1-4.64-10.26A14.26,14.26,0,0,1,18.8,26.93a13.84,13.84,0,0,1,10.3-3.74h.41a8,8,0,0,0,8.05-8.47c0-.44,0-.61,0-.78a13.82,13.82,0,0,1,9-13A13.72,13.72,0,0,1,61.88,4.65a8.2,8.2,0,0,0,12,0,14,14,0,0,1,24.34,10s0,.19,0,.36a7.94,7.94,0,0,0,2.5,5.91,7.85,7.85,0,0,0,6,2.22l.77,0a13.86,13.86,0,0,1,13,9,13.68,13.68,0,0,1-3.69,15.35,8,8,0,0,0-2.67,6,8.26,8.26,0,0,0,2.68,6,13.68,13.68,0,0,1,4.63,10.24A14.26,14.26,0,0,1,116.93,80a13.84,13.84,0,0,1-10.3,3.74h-.4a8.08,8.08,0,0,0-5.81,2.44,8,8,0,0,0-2.25,6c0,.43,0,.61,0,.78a13.9,13.9,0,0,1-14,13.92,13.71,13.71,0,0,1-10.33-4.65,8.32,8.32,0,0,0-12,0A13.8,13.8,0,0,1,51.59,107ZM67.87,93.76a14,14,0,0,1,10.34,4.61,7.83,7.83,0,0,0,6,2.71,8.07,8.07,0,0,0,8.16-8c0-.28,0-.45,0-.62A13.9,13.9,0,0,1,106.23,77.9h.55a7.9,7.9,0,0,0,6.1-2.13,8.45,8.45,0,0,0,2.6-6,7.77,7.77,0,0,0-2.71-5.9,14.12,14.12,0,0,1-4.61-10.37,14,14,0,0,1,4.62-10.35A8.09,8.09,0,0,0,107.4,29l-.62,0a13.94,13.94,0,0,1-14.5-13.89,4.43,4.43,0,0,1,0-.52A8.1,8.1,0,0,0,78.21,8.59,13.88,13.88,0,0,1,67.87,13.2,13.89,13.89,0,0,1,57.51,8.57,8.11,8.11,0,0,0,43.4,13.93c0,.28,0,.45,0,.62a13.63,13.63,0,0,1-3.78,10.14,14,14,0,0,1-10.14,4.37H29a7.94,7.94,0,0,0-6.1,2.13,8.48,8.48,0,0,0-2.59,6,7.79,7.79,0,0,0,2.7,5.9,13.94,13.94,0,0,1,0,20.71,8.09,8.09,0,0,0,5.36,14.1l.62,0a13.42,13.42,0,0,1,7.65,1.95l.71.45a13.91,13.91,0,0,1,6.15,11.5c0,.17,0,.35,0,.53a8.09,8.09,0,0,0,14.08,6A14,14,0,0,1,67.87,93.76Z"/><path class="cls-1" d="M26.2,154.52l-7.32-22L0,135.67l34.11-57.4,3.2,2a13.91,13.91,0,0,1,6.15,11.5c0,.17,0,.35,0,.53a8.07,8.07,0,0,0,5.79,8.4l3.35,1Zm-3.33-28.58,4.42,13.27L44.39,105a13.71,13.71,0,0,1-6.83-12.73,3.53,3.53,0,0,1,0-.38,8,8,0,0,0-1.74-5l-24.34,41Z"/><path class="cls-1" d="M106.16,154.52,79.43,101.1l4.72,0a8.08,8.08,0,0,0,8.18-8c0-.28,0-.45,0-.62a13.84,13.84,0,0,1,3.92-10.3l2.67-2.75,33.47,56.31-18.88-3.12Zm-17.6-48.29,16.51,33,4.42-13.27,11.37,1.87L98.36,90a8.65,8.65,0,0,0-.19,2.28c0,.43,0,.61,0,.78A13.65,13.65,0,0,1,88.56,106.23Z"/><path class="cls-1" d="M69.33,80.78A27.17,27.17,0,1,1,96.5,53.61,27.19,27.19,0,0,1,69.33,80.78Zm0-48.46a21.3,21.3,0,1,0,21.3,21.29A21.31,21.31,0,0,0,69.33,32.32Z"/></g></g></svg>