<svg xmlns="http://www.w3.org/2000/svg" viewBox="0 0 139.18 70.44"><defs><style>.cls-1{fill:#fff;}</style></defs><g id="Capa_2" data-name="Capa 2"><g id="Capa_1-2" data-name="Capa 1"><path class="cls-1" d="M7.76,62.48Q0,54.52,0,39.6V0H10V39.2q0,22.38,19.6,22.38,9.54,0,14.62-5.52T49.24,39.2V0H58.9V39.6q0,15-7.76,22.93T29.45,70.44Q15.52,70.44,7.76,62.48Z"/><path class="cls-1" d="M135.7,39.65a17.55,17.55,0,0,1,3.48,11.19q0,9.06-6.82,13.93t-19.84,4.87H79.29V0h31.24Q122.47,0,129,4.78A15.49,15.49,0,0,1,135.5,18,17.2,17.2,0,0,1,133,27.46a16.52,16.52,0,0,1-6.81,6.07A17.88,17.88,0,0,1,135.7,39.65ZM89.24,8.06V30.34h20.39q7.66,0,11.79-2.83a9.45,9.45,0,0,0,4.13-8.31,9.46,9.46,0,0,0-4.13-8.31q-4.12-2.82-11.79-2.83ZM124.85,58.8Q129.13,56,129.13,50q0-11.64-17-11.64H89.24V61.58h22.88Q120.58,61.58,124.85,58.8Z"/></g></g></svg>