<svg xmlns="http://www.w3.org/2000/svg" viewBox="0 0 167.57 113.79"><defs><style>.cls-1{fill:#fff;}</style></defs><g id="Capa_2" data-name="Capa 2"><g id="Capa_1-2" data-name="Capa 1"><path class="cls-1" d="M138.1,62.06a42.68,42.68,0,0,0-5.5-1.61,27.28,27.28,0,0,0,17-25A26.79,26.79,0,0,0,110.7,11.53a29.75,29.75,0,0,0-49.12,3.06,26.58,26.58,0,0,0-37.35,3.72,27.1,27.1,0,0,0-2.36,31A26.82,26.82,0,0,0,35.24,60.44,44.73,44.73,0,0,0,0,104.19a2.53,2.53,0,0,0,2.5,2.5H35.91a52,52,0,0,0-.5,7.1H139a52,52,0,0,0-.5-7.1h26.6a2.53,2.53,0,0,0,2.5-2.5A45.35,45.35,0,0,0,138.1,62.06ZM126.84,14A21.86,21.86,0,0,1,130.38,56a22.13,22.13,0,0,1-22.66-4.65,29.76,29.76,0,0,0,5.73-35.55A21.44,21.44,0,0,1,126.84,14Zm-23,40.44a26.87,26.87,0,0,0,9.32,6,45.73,45.73,0,0,0-10.66,3.86,51.85,51.85,0,0,0-34.6,1.46,44.91,44.91,0,0,0-7.64-3.7,42.68,42.68,0,0,0-5.5-1.61,26.8,26.8,0,0,0,11.79-9.3,29.76,29.76,0,0,0,37.29,3.31ZM28,49.36A21.8,21.8,0,0,1,59.35,19.24a29.76,29.76,0,0,0,3.8,28.06A21.43,21.43,0,0,1,52.5,56,22.17,22.17,0,0,1,28,49.36ZM13,101.69H5.1A40.17,40.17,0,0,1,31,66.83a40.62,40.62,0,0,1,13.88-2.48,40.05,40.05,0,0,1,17.38,4.07,51.9,51.9,0,0,0-25.38,33.27Zm124.53,0a51.85,51.85,0,0,0-28.6-34.89,39.78,39.78,0,0,1,53.55,34.89Z"/></g></g></svg>