<svg xmlns="http://www.w3.org/2000/svg" viewBox="0 0 326.77 63.66"><defs><style>.cls-1{opacity:0.57;}</style></defs><g id="Capa_2" data-name="Capa 2"><g id="Capa_1-2" data-name="Capa 1"><path d="M133.64,19.7V44.46H127V27A4.28,4.28,0,0,0,123,24.62a3.69,3.69,0,0,0-2.88,1,4.68,4.68,0,0,0-.85,3.11V44.46h-6.61l0-17a4.12,4.12,0,0,0-4.11-2.84,3.65,3.65,0,0,0-2.91,1,4.73,4.73,0,0,0-.82,3.08V44.46H98.15V28.65c0-3.14.66-5.5,2-7.06s3.31-2.35,6-2.35A8.5,8.5,0,0,1,113.55,23q1.78-3.78,6.57-3.78a8.69,8.69,0,0,1,7.11,3.23l.21-2.77Z"/><path d="M138.67,13.3a3.27,3.27,0,0,1,1-2.45,4.31,4.31,0,0,1,5.42,0,3.24,3.24,0,0,1,1,2.45,3.25,3.25,0,0,1-1,2.47,4.23,4.23,0,0,1-5.37,0A3.25,3.25,0,0,1,138.67,13.3Zm7,31.16h-6.63V19.7h6.63Z"/><path d="M165.86,43.35a12,12,0,0,1-4.71-4.48,12.28,12.28,0,0,1-1.72-6.47,12.3,12.3,0,0,1,1.72-6.47,11.92,11.92,0,0,1,4.71-4.47,14,14,0,0,1,6.75-1.62A14.32,14.32,0,0,1,178.32,21a11.54,11.54,0,0,1,4.28,3.2L179,27.48a7.74,7.74,0,0,0-6.1-2.85,8.13,8.13,0,0,0-4,1,7,7,0,0,0-2.75,2.76,8.68,8.68,0,0,0,0,8.05,7,7,0,0,0,2.75,2.75,8.13,8.13,0,0,0,4,1,7.7,7.7,0,0,0,6.1-2.88l3.61,3.33a11.29,11.29,0,0,1-4.3,3.23A14.27,14.27,0,0,1,172.58,45,14,14,0,0,1,165.86,43.35Z"/><path d="M189.07,43.33A12.1,12.1,0,0,1,182.6,32.4,12.21,12.21,0,0,1,184.32,26a12,12,0,0,1,4.75-4.49,15,15,0,0,1,13.62,0,12.57,12.57,0,0,1,4.75,17.36,12.36,12.36,0,0,1-4.75,4.49,15,15,0,0,1-13.62,0Zm10.7-4.15a7.08,7.08,0,0,0,2.73-2.75,8.76,8.76,0,0,0,0-8,7.1,7.1,0,0,0-2.73-2.76,8.12,8.12,0,0,0-7.77,0,7.14,7.14,0,0,0-2.72,2.76,8.68,8.68,0,0,0,0,8.05A7.12,7.12,0,0,0,192,39.18a8.12,8.12,0,0,0,7.77,0Z"/><path d="M231.3,22.57c1.62,1.81,2.43,4.4,2.43,7.75V44.54h-5.62v-14a6.18,6.18,0,0,0-1.37-4.38,4.91,4.91,0,0,0-3.8-1.48,5.5,5.5,0,0,0-4.11,1.58,6.41,6.41,0,0,0-1.54,4.67V44.54h-5.62V20.26h5.45v2.95a8,8,0,0,1,3.12-2.52,10.41,10.41,0,0,1,4.3-.85A8.58,8.58,0,0,1,231.3,22.57Z"/><path d="M257.18,22.57c1.62,1.81,2.43,4.4,2.43,7.75V44.54H254v-14a6.23,6.23,0,0,0-1.37-4.38,4.91,4.91,0,0,0-3.8-1.48,5.5,5.5,0,0,0-4.11,1.58,6.41,6.41,0,0,0-1.54,4.67V44.54h-5.62V20.26H243v2.95a8.07,8.07,0,0,1,3.13-2.52,10.37,10.37,0,0,1,4.3-.85A8.58,8.58,0,0,1,257.18,22.57Z"/><path d="M282.23,40v4.51H263.42V20.26h18.35v4.51H269V30h11.27v4.37H269V40Z"/><path d="M289.81,43.35a12,12,0,0,1-4.72-4.48,12.28,12.28,0,0,1-1.72-6.47,12.3,12.3,0,0,1,1.72-6.47,11.89,11.89,0,0,1,4.72-4.47,13.94,13.94,0,0,1,6.74-1.62A14.32,14.32,0,0,1,302.26,21a11.46,11.46,0,0,1,4.28,3.2l-3.61,3.33a7.74,7.74,0,0,0-6.1-2.85,8.07,8.07,0,0,0-4,1,7,7,0,0,0-2.76,2.76,8.68,8.68,0,0,0,0,8.05,7,7,0,0,0,2.76,2.75,8.07,8.07,0,0,0,4,1,7.7,7.7,0,0,0,6.1-2.88l3.61,3.33a11.22,11.22,0,0,1-4.3,3.23A14.27,14.27,0,0,1,296.52,45,14,14,0,0,1,289.81,43.35Z"/><path d="M313.38,24.84h-7.77V20.26h21.16v4.58H319v19.7h-5.62Z"/><path d="M44.93,20.34a20.34,20.34,0,0,1,1.93-8.65A28,28,0,0,0,5.49,48.93L2.55,63.66,17.19,58.1A27.63,27.63,0,0,0,28,60.27,28,28,0,0,0,55.33,38.09,20.33,20.33,0,0,1,44.93,20.34ZM41.71,45.08H16a1.62,1.62,0,0,1,0-3.24H41.71A1.62,1.62,0,0,1,41.71,45.08Zm0-11.16H16a1.63,1.63,0,0,1,0-3.25H41.71A1.63,1.63,0,0,1,41.71,33.92Zm0-11.16H16a1.62,1.62,0,0,1,0-3.24H41.71A1.62,1.62,0,0,1,41.71,22.76Z"/><g class="cls-1"><path d="M55.94,32.29a27.7,27.7,0,0,1-.61,5.8,20.35,20.35,0,0,1-8.47-26.4A27.83,27.83,0,0,1,55.94,32.29Z"/></g><path d="M85.62,20.34a20.35,20.35,0,0,0-38.76-8.65,27.9,27.9,0,0,1,8.47,26.4,20.27,20.27,0,0,0,23.75-2.84l6.54.6L83,30.25A20.16,20.16,0,0,0,85.62,20.34Zm-11.41,5.6H57.62a1.63,1.63,0,0,1,0-3.25H74.21A1.63,1.63,0,0,1,74.21,25.94Zm0-8H57.62a1.63,1.63,0,0,1,0-3.25H74.21A1.63,1.63,0,0,1,74.21,18Z"/></g></g></svg>